<svg xmlns="http://www.w3.org/2000/svg" width="1106.905" height="176.734" viewBox="0 0 1106.905 176.734">
  <g id="Group_214" data-name="Group 214" transform="translate(-3754.62 -1021.32)">
    <path id="Path_1113" data-name="Path 1113" d="M139.27,83.78h44.951v68.035h91.187V83.78h45.018V253.766H275.408V178.758H184.221v75.008H139.27Z" transform="translate(4459.186 940.656)" fill="#e73137" fill-rule="evenodd"/>
    <path id="Path_1114" data-name="Path 1114" d="M14.62,83.78H59.638v68.035h91.119V83.78h45.289V253.766H150.758V178.758H59.638v75.008H14.62Z" transform="translate(3740 940.656)" fill="#e73137" fill-rule="evenodd"/>
    <path id="Path_1115" data-name="Path 1115" d="M46.92,83.78H92.48V253.766H46.92Z" transform="translate(3926.36 940.656)" fill="#e73137" fill-rule="evenodd"/>
    <path id="Path_1116" data-name="Path 1116" d="M171.4,83.78h45.56V253.766H171.4Z" transform="translate(4644.565 940.656)" fill="#e73137" fill-rule="evenodd"/>
    <path id="Path_1117" data-name="Path 1117" d="M56.12,83.78H233.079v28.3H166.939V253.766H122.192V112.077H56.12Z" transform="translate(3979.44 940.656)" fill="#e73137" fill-rule="evenodd"/>
    <path id="Path_1118" data-name="Path 1118" d="M154.3,188.546l31.411-75.82,31.14,75.82ZM228.16,215.49l15.57,38.045h50.84L214.282,83.82H157.35L76.52,253.6h50.569l15.841-38.045h85.23Z" transform="translate(4097.141 940.887)" fill="#e73137" fill-rule="evenodd"/>
    <path id="Path_1119" data-name="Path 1119" d="M252.787,144.182h46.1c-.542-30.87-27.214-60.318-89.156-60.859-46.1-.271-101.951,18.616-102.222,87.8-.271,68.644,56.662,90.036,102.222,88.885,41.972-1.422,88.615-13.065,90.578-64.718l-46.372.271c-1.422,32.224-27.214,38.587-44.206,38.925-17.533,0-53.345-3.588-53.886-62.484-.542-55.579,32.224-63.364,53.886-63.364,21.324.271,42.716,10.29,43.055,35.541Z" transform="translate(4275.941 938)" fill="#e73137" fill-rule="evenodd"/>
  </g>
</svg>
