<svg xmlns="http://www.w3.org/2000/svg" xmlns:xlink="http://www.w3.org/1999/xlink" width="100" height="100" viewBox="0 0 100 100">
  <defs>
    <clipPath id="clip-ios">
      <rect width="100" height="100"/>
    </clipPath>
  </defs>
  <g id="ios" clip-path="url(#clip-ios)">
    <rect width="100" height="100" fill="#fff"/>
    <g id="ios-2">
      <path id="Path_29" data-name="Path 29" d="M0,0H100V99.74H0Z" fill="#282828"/>
      <path id="Path_30" data-name="Path 30" d="M225.127,515.476a19.08,19.08,0,0,0-8.448,1.937c-6.742,3.3-10.635,10.263-10.635,19.031,0,8.788,3.83,15.54,10.6,18.7a19.694,19.694,0,0,0,6.441,1.643,26.691,26.691,0,0,0,4.095,0,19.694,19.694,0,0,0,6.441-1.643c6.766-3.159,10.6-9.91,10.6-18.7,0-8.768-3.894-15.727-10.635-19.031a19.082,19.082,0,0,0-8.449-1.937Zm2.684,6.181c4.048,1.061,6.985,4.655,8.11,9.9a22.33,22.33,0,0,1-.556,11.286c-1.763,5.218-5.588,8.164-10.238,8.117-4.649.047-8.475-2.9-10.237-8.117a22.355,22.355,0,0,1-.557-11.286c1.126-5.242,4.063-8.836,8.111-9.9A13.915,13.915,0,0,1,227.811,521.657Zm-29.564-6.181a3.982,3.982,0,1,0,4.047,3.982A4.015,4.015,0,0,0,198.247,515.476Zm-3.781,12.149v29.243h7.562V527.625Zm60.742,29.182c-3.24-.546-6.357-.969-9-2.447-.035-.031,1.562-5.9,1.634-6.007,4.252,1.421,10.237,3.413,14.273,1.587a4.949,4.949,0,0,0,2.92-5.4c-.41-2.6-2.237-4.094-7.254-5.939-5.6-2.058-8.875-4.588-10.218-7.877a10.6,10.6,0,0,1-.582-5.476c.825-5,4.786-8.483,10.865-9.547a29.729,29.729,0,0,1,7.38-.006c2.67.439,5.733,1.433,5.733,1.86,0,.157-1.565,5.586-1.645,5.706a24.058,24.058,0,0,0-8.108-1.78c-3.545-.044-7.389,2.027-6.711,5.685.48,2.292,1.967,3.411,7.439,5.6,4.03,1.613,5.964,2.725,7.622,4.381a10.19,10.19,0,0,1,3.049,7.55,9.6,9.6,0,0,1-1,4.907q-2.9,6.166-11.782,7.149a32.3,32.3,0,0,1-4.613.049Z" transform="translate(-183.399 -486.302)" fill="#fff"/>
    </g>
  </g>
</svg>
