<svg xmlns="http://www.w3.org/2000/svg" xmlns:xlink="http://www.w3.org/1999/xlink" width="100" height="100" viewBox="0 0 100 100">
  <defs>
    <clipPath id="clip-java">
      <rect width="100" height="100"/>
    </clipPath>
  </defs>
  <g id="java" clip-path="url(#clip-java)">
    <rect width="100" height="100" fill="#fff"/>
    <g id="java-4" transform="translate(16.473 -4.399)">
      <path id="Path_1" data-name="Path 1" d="M283.44,430.014h-.373V429.8h1.005v.209H283.7v1.042h-.261Zm2,.054h-.006l-.37.988H284.9l-.368-.988h0v.988h-.246v-1.251h.362l.341.886.34-.886h.361v1.251h-.24Z" transform="translate(-225.878 -346.75)" fill="#e76f00"/>
      <path id="Path_2" data-name="Path 2" d="M79.122,258.146s-2.6,1.51,1.848,2.022a38.9,38.9,0,0,0,14.074-.6,24.486,24.486,0,0,0,3.74,1.826c-13.306,5.7-30.114-.33-19.663-3.251M77.5,250.7s-2.913,2.156,1.536,2.617a54.906,54.906,0,0,0,18.16-.872,8.062,8.062,0,0,0,2.8,1.705c-16.088,4.7-34.006.371-22.493-3.45" transform="translate(-54.979 -200.707)" fill="#5382a1"/>
      <path id="Path_3" data-name="Path 3" d="M155.218,98.795c3.279,3.775-.861,7.172-.861,7.172s8.324-4.3,4.5-9.679c-3.571-5.019-6.309-7.512,8.515-16.11,0,0-23.269,5.811-12.155,18.617" transform="translate(-118.994 -61.896)" fill="#e76f00"/>
      <path id="Path_4" data-name="Path 4" d="M60.379,226.345s1.922,1.584-2.117,2.809c-7.68,2.327-31.966,3.029-38.713.093-2.425-1.055,2.123-2.519,3.553-2.827a9.226,9.226,0,0,1,2.345-.263c-2.7-1.9-17.433,3.731-7.485,5.343,27.129,4.4,49.454-1.981,42.417-5.155m-28.43-20.656s-12.353,2.934-4.375,4c3.369.451,10.085.349,16.34-.175,5.112-.431,10.246-1.348,10.246-1.348a21.7,21.7,0,0,0-3.107,1.662c-12.545,3.3-36.779,1.764-29.8-1.61a23.374,23.374,0,0,1,10.7-2.529m22.16,12.387c12.752-6.627,6.856-12.995,2.741-12.137a9.544,9.544,0,0,0-1.458.392,2.325,2.325,0,0,1,1.089-.841c8.142-2.862,14.4,8.442-2.628,12.919a1.108,1.108,0,0,0,.256-.334" transform="translate(-6.557 -163.409)" fill="#5382a1"/>
      <path id="Path_5" data-name="Path 5" d="M118.444,4.4s7.062,7.065-6.7,17.928c-11.035,8.714-2.516,13.683,0,19.36-6.441-5.812-11.168-10.927-8-15.689,4.654-6.989,17.549-10.378,14.7-21.6" transform="translate(-78.581)" fill="#e76f00"/>
      <path id="Path_6" data-name="Path 6" d="M73.495,346.485c12.241.784,31.037-.435,31.482-6.226,0,0-.856,2.2-10.116,3.939a100.645,100.645,0,0,1-30.976.477s1.565,1.295,9.61,1.811" transform="translate(-46.85 -273.729)" fill="#5382a1"/>
      <path id="Path_7" data-name="Path 7" d="M24.639,417a5.556,5.556,0,0,1-3.469,1.564,2.212,2.212,0,0,1-2.406-2.439c0-1.625.9-2.813,4.532-2.813h1.342V417m3.186,3.595V409.469c0-2.843-1.621-4.719-5.53-4.719a14.569,14.569,0,0,0-5.906,1.282l.469,1.97a13.728,13.728,0,0,1,4.561-.907c2.252,0,3.221.907,3.221,2.781v1.407H23.515c-5.471,0-7.939,2.124-7.939,5.312,0,2.751,1.626,4.315,4.689,4.315a7.072,7.072,0,0,0,4.812-2l.249,1.689h2.5Zm10.633,0H34.484L29.7,405.032h3.471L36.14,414.6l.66,2.876a59.794,59.794,0,0,0,3.094-12.439H43.27A63.213,63.213,0,0,1,38.458,420.6M53.7,417a5.571,5.571,0,0,1-3.473,1.564,2.213,2.213,0,0,1-2.406-2.439c0-1.625.906-2.813,4.534-2.813H53.7V417m3.186,3.595V409.469c0-2.843-1.625-4.719-5.53-4.719a14.568,14.568,0,0,0-5.907,1.282L45.92,408a13.749,13.749,0,0,1,4.563-.907c2.25,0,3.22.907,3.22,2.781v1.407H52.577c-5.473,0-7.94,2.124-7.94,5.312,0,2.751,1.625,4.315,4.687,4.315a7.081,7.081,0,0,0,4.815-2l.25,1.689h2.5ZM12.082,423.24A8.371,8.371,0,0,1,8.1,426.209l-1.573-1.851a6.6,6.6,0,0,0,2.758-2.584c.421-.839.6-1.921.6-4.507V399.5h3.385v17.526c0,3.458-.277,4.855-1.184,6.217" transform="translate(0 -321.81)" fill="#e76f00"/>
    </g>
  </g>
</svg>
