<svg xmlns="http://www.w3.org/2000/svg" xmlns:xlink="http://www.w3.org/1999/xlink" width="100" height="100" viewBox="0 0 100 100">
  <defs>
    <clipPath id="clip-laravel">
      <rect width="100" height="100"/>
    </clipPath>
  </defs>
  <g id="laravel" clip-path="url(#clip-laravel)">
    <rect width="100" height="100" fill="#fff"/>
    <path id="laravel-2" d="M97.084,22.623a1.583,1.583,0,0,1,.055.409V44.5a1.565,1.565,0,0,1-.786,1.358L78.337,56.226V76.785a1.569,1.569,0,0,1-.783,1.358L39.948,99.792a1.681,1.681,0,0,1-.274.113c-.035.012-.068.033-.106.043a1.575,1.575,0,0,1-.8,0c-.043-.012-.082-.035-.123-.051a1.63,1.63,0,0,1-.258-.106L.786,78.143A1.567,1.567,0,0,1,0,76.785V12.391a1.6,1.6,0,0,1,.055-.411c.012-.045.039-.086.055-.131a1.542,1.542,0,0,1,.1-.243,1.464,1.464,0,0,1,.108-.139,1.594,1.594,0,0,1,.139-.182,1.528,1.528,0,0,1,.155-.117,1.276,1.276,0,0,1,.172-.135h0L19.585.209a1.569,1.569,0,0,1,1.565,0l18.8,10.824h0a1.918,1.918,0,0,1,.172.133,1.851,1.851,0,0,1,.153.117,1.831,1.831,0,0,1,.141.184,1.444,1.444,0,0,1,.106.139,1.633,1.633,0,0,1,.1.243c.016.045.043.086.055.133a1.583,1.583,0,0,1,.055.409v40.22L56.4,43.591V23.03a1.581,1.581,0,0,1,.055-.407c.014-.047.039-.088.055-.133a1.764,1.764,0,0,1,.1-.243c.029-.051.072-.092.106-.139a1.611,1.611,0,0,1,.141-.182,1.5,1.5,0,0,1,.153-.117,1.58,1.58,0,0,1,.172-.135h0l18.8-10.824a1.567,1.567,0,0,1,1.565,0l18.8,10.824a1.73,1.73,0,0,1,.176.133c.049.039.106.074.151.117a1.83,1.83,0,0,1,.141.184,1.182,1.182,0,0,1,.106.139,1.552,1.552,0,0,1,.1.243,1.121,1.121,0,0,1,.055.133ZM94.005,43.591V25.741l-6.579,3.787-9.089,5.233V52.611l15.67-9.021ZM75.2,75.88V58.018l-8.94,5.106L40.734,77.7V95.725ZM3.134,15.1V75.88L37.6,95.723V77.7L19.594,67.507l-.006,0-.008,0a73.206,73.206,0,0,0-.317-.243l0-.006a1.493,1.493,0,0,1-.129-.164,1.673,1.673,0,0,1-.117-.153l0-.006a1.247,1.247,0,0,1-.082-.2,1.158,1.158,0,0,1-.074-.176v0a1.5,1.5,0,0,1-.031-.229,1.358,1.358,0,0,1-.023-.176V24.121L9.713,18.886,3.134,15.1ZM20.369,3.375,4.7,12.391l15.66,9.017,15.662-9.019L20.365,3.375Zm8.146,56.272L37.6,54.415V15.1l-6.579,3.787-9.089,5.233V63.435ZM76.772,14.015,61.11,23.032l15.662,9.017,15.66-9.019ZM75.2,34.762l-9.089-5.233-6.579-3.787V43.591l9.087,5.231L75.2,52.611ZM39.165,74.986,62.139,61.87l11.484-6.554L57.972,46.306,39.952,56.68,23.529,66.135Z" transform="translate(1 0)" fill="#ff2d20"/>
  </g>
</svg>
