<svg xmlns="http://www.w3.org/2000/svg" xmlns:xlink="http://www.w3.org/1999/xlink" width="100" height="100" viewBox="0 0 100 100">
  <defs>
    <clipPath id="clip-path">
      <path id="Path_1206" data-name="Path 1206" d="M204.453,226.079l-9.524,5.5a1.15,1.15,0,0,0-.576,1v11a1.149,1.149,0,0,0,.576,1l9.524,5.5a1.153,1.153,0,0,0,1.151,0l9.523-5.5a1.152,1.152,0,0,0,.574-1v-11a1.149,1.149,0,0,0-.576-1l-9.521-5.5a1.158,1.158,0,0,0-1.153,0" transform="translate(-194.354 -225.925)"/>
    </clipPath>
    <linearGradient id="linear-gradient" x1="-0.847" y1="-1.034" x2="-0.838" y2="-1.034" gradientUnits="objectBoundingBox">
      <stop offset="0.3" stop-color="#3e863d"/>
      <stop offset="0.5" stop-color="#55934f"/>
      <stop offset="0.8" stop-color="#5aad45"/>
    </linearGradient>
    <clipPath id="clip-path-2">
      <path id="Path_1208" data-name="Path 1208" d="M195.4,244.383a1.152,1.152,0,0,0,.339.3l8.17,4.719,1.361.782a1.155,1.155,0,0,0,.663.15,1.176,1.176,0,0,0,.226-.041L216.2,231.9a1.139,1.139,0,0,0-.268-.212l-6.236-3.6-3.3-1.9a1.2,1.2,0,0,0-.3-.12Zm0,0" transform="translate(-195.398 -226.069)"/>
    </clipPath>
    <linearGradient id="linear-gradient-2" x1="-0.742" y1="-0.932" x2="-0.737" y2="-0.932" gradientUnits="objectBoundingBox">
      <stop offset="0.57" stop-color="#3e863d"/>
      <stop offset="0.72" stop-color="#619857"/>
      <stop offset="1" stop-color="#76ac64"/>
    </linearGradient>
    <clipPath id="clip-path-3">
      <path id="Path_1210" data-name="Path 1210" d="M206.978,225.938a1.162,1.162,0,0,0-.46.147l-9.5,5.481,10.24,18.652a1.142,1.142,0,0,0,.409-.141l9.524-5.5a1.154,1.154,0,0,0,.556-.786l-10.439-17.833a1.194,1.194,0,0,0-.233-.023c-.032,0-.063,0-.095,0" transform="translate(-197.021 -225.934)"/>
    </clipPath>
    <linearGradient id="linear-gradient-3" x1="-2.148" y1="-2.103" x2="-2.138" y2="-2.103" gradientUnits="objectBoundingBox">
      <stop offset="0.16" stop-color="#6bbf47"/>
      <stop offset="0.38" stop-color="#79b461"/>
      <stop offset="0.47" stop-color="#75ac64"/>
      <stop offset="0.7" stop-color="#659e5a"/>
      <stop offset="0.9" stop-color="#3e863d"/>
    </linearGradient>
    <clipPath id="clip-_100x100_3">
      <rect width="100" height="100"/>
    </clipPath>
  </defs>
  <g id="_100x100_3" data-name="100x100 – 3" clip-path="url(#clip-_100x100_3)">
    <g id="node" transform="translate(0 12)">
      <path id="Path_1201" data-name="Path 1201" d="M187.321,200.329a2.963,2.963,0,0,1-1.477-.395l-4.7-2.783c-.7-.393-.359-.531-.128-.611a9.487,9.487,0,0,0,2.125-.969.357.357,0,0,1,.35.025l3.611,2.143a.477.477,0,0,0,.436,0l14.079-8.127a.444.444,0,0,0,.215-.381V172.984a.452.452,0,0,0-.218-.388l-14.074-8.12a.433.433,0,0,0-.433,0l-14.071,8.12a.449.449,0,0,0-.223.384v16.247a.434.434,0,0,0,.218.377l3.855,2.227c2.093,1.047,3.373-.187,3.373-1.427V174.369a.4.4,0,0,1,.409-.405h1.783a.4.4,0,0,1,.405.405v16.042c0,2.791-1.522,4.395-4.169,4.395a6.035,6.035,0,0,1-3.246-.881L171.75,191.8a2.977,2.977,0,0,1-1.477-2.569V172.98a2.958,2.958,0,0,1,1.477-2.566l14.093-8.13a3.087,3.087,0,0,1,2.96,0l14.076,8.134a2.97,2.97,0,0,1,1.477,2.566v16.247a2.979,2.979,0,0,1-1.477,2.566l-14.076,8.13a2.96,2.96,0,0,1-1.484.395" transform="translate(-137.254 -125.195)" fill="#689f63"/>
      <path id="Path_1202" data-name="Path 1202" d="M217.294,202.9c-6.16,0-7.452-2.828-7.452-5.2a.4.4,0,0,1,.408-.405h1.818a.407.407,0,0,1,.4.345c.275,1.853,1.092,2.788,4.818,2.788,2.967,0,4.229-.67,4.229-2.244,0-.906-.359-1.579-4.969-2.03-3.855-.381-6.238-1.23-6.238-4.314,0-2.84,2.4-4.532,6.411-4.532,4.507,0,6.742,1.565,7.024,4.927a.41.41,0,0,1-.109.314.419.419,0,0,1-.3.13h-1.829a.4.4,0,0,1-.395-.317c-.441-1.949-1.5-2.573-4.4-2.573-3.239,0-3.616,1.128-3.616,1.974,0,1.026.444,1.325,4.814,1.9,4.328.574,6.382,1.385,6.382,4.426,0,3.066-2.559,4.825-7.02,4.825m17.149-17.23h.472a.41.41,0,0,0,.462-.43c0-.416-.285-.416-.444-.416h-.486Zm-.574-1.332h1.047c.359,0,1.064,0,1.064.8a.7.7,0,0,1-.574.747c.419.028.448.3.5.691a2.971,2.971,0,0,0,.159.8H235.4c-.018-.141-.116-.916-.116-.959-.042-.173-.1-.257-.317-.257h-.532V187.4h-.589Zm-1.258,1.515a2.275,2.275,0,1,0,2.266-2.27,2.278,2.278,0,0,0-2.266,2.27m4.99.011a2.714,2.714,0,1,1-2.714-2.714,2.722,2.722,0,0,1,2.714,2.714" transform="translate(-162.878 -138.96)" fill="#689f63"/>
      <path id="Path_1203" data-name="Path 1203" d="M21.461,20.469a1.156,1.156,0,0,0-.578-1l-9.575-5.509a1.118,1.118,0,0,0-.526-.151h-.1a1.138,1.138,0,0,0-.529.151L.579,19.465A1.165,1.165,0,0,0,0,20.471L.021,35.309a.57.57,0,0,0,.287.5.547.547,0,0,0,.574,0l5.692-3.26a1.167,1.167,0,0,0,.579-1V24.613a1.153,1.153,0,0,1,.578-1l2.423-1.4a1.15,1.15,0,0,1,.579-.156,1.129,1.129,0,0,1,.575.155l2.422,1.4a1.154,1.154,0,0,1,.579,1v6.932a1.171,1.171,0,0,0,.58,1l5.688,3.257a.565.565,0,0,0,.579,0,.581.581,0,0,0,.287-.5ZM66.642,28.2a.287.287,0,0,1-.145.25l-3.289,1.9a.29.29,0,0,1-.289,0l-3.289-1.9a.286.286,0,0,1-.145-.25V24.4a.291.291,0,0,1,.142-.251l3.287-1.9a.292.292,0,0,1,.292,0l3.289,1.9a.288.288,0,0,1,.145.251ZM67.53.073a.578.578,0,0,0-.86.506V15.273a.4.4,0,0,1-.607.35l-2.4-1.381a1.155,1.155,0,0,0-1.156,0l-9.578,5.528a1.154,1.154,0,0,0-.579,1V31.827a1.158,1.158,0,0,0,.579,1l9.578,5.532a1.161,1.161,0,0,0,1.157,0l9.578-5.534a1.159,1.159,0,0,0,.579-1V4.264a1.159,1.159,0,0,0-.595-1.01ZM99.425,24.3a1.157,1.157,0,0,0,.575-1v-2.68a1.157,1.157,0,0,0-.576-1l-9.517-5.525a1.156,1.156,0,0,0-1.16,0l-9.576,5.527a1.154,1.154,0,0,0-.579,1V31.676a1.16,1.16,0,0,0,.583,1.006l9.515,5.423a1.153,1.153,0,0,0,1.135.007l5.755-3.2a.577.577,0,0,0,0-1.006l-9.634-5.529a.574.574,0,0,1-.292-.5V24.411a.574.574,0,0,1,.289-.5l3-1.729a.572.572,0,0,1,.576,0l3,1.729a.576.576,0,0,1,.289.5v2.726a.577.577,0,0,0,.868.5Zm0,0" transform="translate(0 0)" fill="#333" fill-rule="evenodd"/>
      <path id="Path_1204" data-name="Path 1204" d="M387.863,105.1a.219.219,0,0,1,.222,0l1.838,1.06a.222.222,0,0,1,.111.192v2.123a.222.222,0,0,1-.111.192l-1.838,1.06a.219.219,0,0,1-.222,0l-1.837-1.06a.221.221,0,0,1-.113-.192V106.35a.219.219,0,0,1,.111-.192Zm0,0" transform="translate(-298.675 -81.316)" fill="#689f63" fill-rule="evenodd"/>
      <g id="Group_620" data-name="Group 620" transform="translate(26.233 13.995)" clip-path="url(#clip-path)">
        <path id="Path_1205" data-name="Path 1205" d="M192.374,201.757,165.538,188.6l-13.76,28.07,26.835,13.155Zm0,0" transform="translate(-161.403 -197.04)" fill="url(#linear-gradient)"/>
      </g>
      <g id="Group_621" data-name="Group 621" transform="translate(26.469 14.028)" clip-path="url(#clip-path-2)">
        <path id="Path_1207" data-name="Path 1207" d="M144.07,200.616l18.949,25.647,25.06-18.515L169.129,182.1Zm0,0" transform="translate(-155.673 -192.04)" fill="url(#linear-gradient-2)"/>
      </g>
      <g id="Group_622" data-name="Group 622" transform="translate(26.836 13.997)" clip-path="url(#clip-path-3)">
        <path id="Path_1209" data-name="Path 1209" d="M197.02,225.934v24.285h20.725V225.934Zm0,0" transform="translate(-197.02 -225.934)" fill="url(#linear-gradient-3)"/>
      </g>
    </g>
  </g>
</svg>
