<svg xmlns="http://www.w3.org/2000/svg" xmlns:xlink="http://www.w3.org/1999/xlink" width="136" height="110" viewBox="0 0 136 110">
  <defs>
    <clipPath id="clip-path">
      <path id="path3446" d="M14.4-349.959c0,18.965,29.227,34.34,65.28,34.34h0c36.053,0,65.28-15.375,65.28-34.34h0c0-18.965-29.228-34.34-65.28-34.34h0c-36.053,0-65.28,15.375-65.28,34.34" transform="translate(-14.4 384.299)"/>
    </clipPath>
    <radialGradient id="radial-gradient" cx="0.628" cy="0.8" r="1.248" gradientTransform="translate(-0.009 0.511) scale(0.526 1)" gradientUnits="objectBoundingBox">
      <stop offset="0" stop-color="#aeb2d5"/>
      <stop offset="0.3" stop-color="#aeb2d5"/>
      <stop offset="0.75" stop-color="#484c89"/>
      <stop offset="1" stop-color="#484c89"/>
    </radialGradient>
    <clipPath id="clip-path-2">
      <path id="path3470" d="M0-405H136v76.5H0Z" transform="translate(0 405)"/>
    </clipPath>
    <clipPath id="clip-_100x100_2">
      <rect width="136" height="110"/>
    </clipPath>
  </defs>
  <g id="_100x100_2" data-name="100x100 – 2" clip-path="url(#clip-_100x100_2)">
    <g id="g3438" transform="translate(0 422)">
      <g id="g3440" transform="translate(2.72 -401.09)">
        <g id="g3442" transform="translate(0 0)" clip-path="url(#clip-path)">
          <g id="g3448">
            <g id="g3450">
              <path id="path3462" d="M14.4-349.959c0,18.965,29.227,34.34,65.28,34.34h0c36.053,0,65.28-15.375,65.28-34.34h0c0-18.965-29.228-34.34-65.28-34.34h0c-36.053,0-65.28,15.375-65.28,34.34" transform="translate(-14.4 384.299)" fill="url(#radial-gradient)"/>
            </g>
          </g>
        </g>
      </g>
      <g id="g3464" transform="translate(0 -405)">
        <g id="g3466" clip-path="url(#clip-path-2)">
          <g id="g3472" transform="translate(5.27 6.46)">
            <path id="path3474" d="M-269.37-273.022c34.644,0,62.73-14.233,62.73-31.79s-28.086-31.79-62.73-31.79-62.73,14.233-62.73,31.79,28.086,31.79,62.73,31.79" transform="translate(332.1 336.603)" fill="#777bb3"/>
          </g>
        </g>
      </g>
      <g id="g3476" transform="translate(0 -405)">
        <g id="g3478" clip-path="url(#clip-path-2)">
          <g id="g3484" transform="translate(22.589 22.358)">
            <path id="path3486" d="M-66.98-85.167c2.849,0,4.975-.525,6.321-1.561s2.251-2.8,2.732-5.278c.449-2.315.278-3.932-.509-4.8-.8-.891-2.544-1.343-5.169-1.343h-4.552L-70.68-85.167Zm-14.89,16a.707.707,0,0,1-.546-.258.708.708,0,0,1-.149-.586l6.689-34.413a.708.708,0,0,1,.7-.573h14.416c4.53,0,7.9,1.23,10.022,3.657s2.789,5.849,1.956,10.134a16.175,16.175,0,0,1-1.733,4.819,16.135,16.135,0,0,1-3.19,4,14,14,0,0,1-5.25,3.146,23.782,23.782,0,0,1-7.213.928h-5.837l-1.667,8.576a.708.708,0,0,1-.7.573Z" transform="translate(82.578 105)"/>
          </g>
          <g id="g3488" transform="translate(21.881 21.65)">
            <path id="path3490" d="M-67.476-35.486h3.969c3.169,0,4.27.7,4.644,1.11.62.688.738,2.139.339,4.195-.448,2.3-1.279,3.934-2.469,4.851-1.219.938-3.2,1.414-5.889,1.414h-2.841Zm6.807-8.264H-75.084a1.417,1.417,0,0,0-1.39,1.146L-83.163-8.19a1.417,1.417,0,0,0,.3,1.171,1.416,1.416,0,0,0,1.093.515h7.5A1.417,1.417,0,0,0-72.885-7.65l1.555-8h5.253a24.474,24.474,0,0,0,7.433-.963,14.7,14.7,0,0,0,5.514-3.3,16.85,16.85,0,0,0,3.324-4.169A16.882,16.882,0,0,0-48-29.116c.877-4.511.165-8.123-2.118-10.735-2.26-2.587-5.812-3.9-10.556-3.9M-71.443-22.5h4.56q4.534,0,6.753-1.708t3-5.7q.744-3.836-.678-5.414t-5.7-1.577h-5.136l-2.8,14.4m10.774-19.833q6.5,0,9.489,3.414t1.794,9.533a15.408,15.408,0,0,1-1.656,4.609,15.369,15.369,0,0,1-3.051,3.821,13.241,13.241,0,0,1-4.99,2.994,22.98,22.98,0,0,1-6.994.893H-72.5L-74.276-7.92h-7.5l6.689-34.413h14.416" transform="translate(83.189 43.75)" fill="#fff"/>
          </g>
          <g id="g3492" transform="translate(54.502 13.209)">
            <path id="path3494" d="M-81.872-153.858a.707.707,0,0,1-.546-.258.707.707,0,0,1-.149-.586l2.959-15.227c.281-1.448.212-2.487-.2-2.927-.249-.268-1-.719-3.213-.719h-5.36l-3.72,19.142a.708.708,0,0,1-.7.573h-7.437a.708.708,0,0,1-.547-.258.708.708,0,0,1-.149-.586l6.689-34.413a.708.708,0,0,1,.7-.573H-86.1a.708.708,0,0,1,.547.258.708.708,0,0,1,.149.586l-1.614,8.306h5.766c4.393,0,7.372.774,9.107,2.368,1.768,1.625,2.32,4.224,1.64,7.725l-3.112,16.014a.708.708,0,0,1-.7.573Z" transform="translate(100.938 189.688)"/>
          </g>
          <g id="g3496" transform="translate(53.794 12.5)">
            <path id="path3498" d="M-66.743,0H-74.18a1.417,1.417,0,0,0-1.391,1.146L-82.259,35.56a1.416,1.416,0,0,0,.3,1.171,1.416,1.416,0,0,0,1.093.515h7.438A1.417,1.417,0,0,0-72.041,36.1l3.608-18.569h4.776c2.211,0,2.675.472,2.693.493.134.144.31.812.019,2.309L-63.9,35.56a1.416,1.416,0,0,0,.3,1.171,1.416,1.416,0,0,0,1.093.515h7.556A1.417,1.417,0,0,0-53.565,36.1l3.112-16.014c.73-3.759.106-6.579-1.856-8.382-1.872-1.719-5.007-2.555-9.586-2.555H-66.8l1.45-7.462a1.417,1.417,0,0,0-.3-1.171A1.417,1.417,0,0,0-66.743,0m0,1.417-1.778,9.149H-61.9q6.254,0,8.627,2.181t1.424,7.069L-54.956,35.83h-7.556L-59.552,20.6q.505-2.6-.372-3.544t-3.732-.945H-69.6L-73.431,35.83h-7.437L-74.18,1.417h7.438" transform="translate(82.285)" fill="#fff"/>
          </g>
          <g id="g3500" transform="translate(81.101 22.358)">
            <path id="path3502" d="M-66.98-85.167c2.849,0,4.975-.525,6.321-1.561s2.251-2.8,2.733-5.278c.449-2.315.278-3.932-.509-4.8-.8-.891-2.544-1.343-5.169-1.343h-4.552L-70.68-85.167Zm-14.89,16a.707.707,0,0,1-.546-.258.708.708,0,0,1-.149-.586l6.689-34.413a.709.709,0,0,1,.7-.573h14.415c4.531,0,7.9,1.23,10.022,3.657s2.789,5.849,1.956,10.134a16.189,16.189,0,0,1-1.734,4.819,16.135,16.135,0,0,1-3.19,4,14,14,0,0,1-5.25,3.146,23.782,23.782,0,0,1-7.213.928h-5.837l-1.666,8.576a.709.709,0,0,1-.7.573Z" transform="translate(82.578 105)"/>
          </g>
          <g id="g3504" transform="translate(80.393 21.65)">
            <path id="path3506" d="M-67.475-35.486h3.969c3.169,0,4.27.7,4.644,1.11.621.688.738,2.139.339,4.195-.448,2.3-1.279,3.935-2.469,4.851-1.219.938-3.2,1.414-5.889,1.414h-2.841Zm6.807-8.264H-75.083a1.417,1.417,0,0,0-1.39,1.146L-83.162-8.19a1.417,1.417,0,0,0,.3,1.171,1.416,1.416,0,0,0,1.093.515h7.5A1.417,1.417,0,0,0-72.884-7.65l1.555-8h5.253a24.473,24.473,0,0,0,7.433-.963,14.7,14.7,0,0,0,5.515-3.3A16.842,16.842,0,0,0-49.8-24.086a16.882,16.882,0,0,0,1.811-5.03c.877-4.511.165-8.123-2.118-10.735-2.26-2.587-5.811-3.9-10.556-3.9M-71.442-22.5h4.56q4.534,0,6.753-1.708t3-5.7q.744-3.836-.678-5.414t-5.7-1.577h-5.136l-2.8,14.4m10.774-19.833q6.5,0,9.489,3.414t1.794,9.533a15.408,15.408,0,0,1-1.656,4.609,15.369,15.369,0,0,1-3.051,3.821,13.241,13.241,0,0,1-4.99,2.994,22.98,22.98,0,0,1-6.994.893H-72.5L-74.275-7.92h-7.5l6.689-34.413h14.416" transform="translate(83.188 43.75)" fill="#fff"/>
          </g>
        </g>
      </g>
    </g>
  </g>
</svg>
