<svg xmlns="http://www.w3.org/2000/svg" xmlns:xlink="http://www.w3.org/1999/xlink" width="100" height="100" viewBox="0 0 100 100">
  <defs>
    <clipPath id="clip-dart">
      <rect width="100" height="100"/>
    </clipPath>
  </defs>
  <g id="dart" clip-path="url(#clip-dart)">
    <rect width="100" height="100" fill="#fff"/>
    <g id="dart-2" data-name="dart" transform="translate(-0.847 -0.001)">
      <path id="Path_90" data-name="Path 90" d="M60.451,59.613,53.988,53.15l.027,46.718.077,2.184a15.407,15.407,0,0,0,.541,3.388L105.846,123.5l12.8-5.672,0-.016-58.2-58.2" transform="translate(-32.383 -32.388)" fill="#00d2b8"/>
      <path id="Path_91" data-name="Path 91" d="M55.623,186.915l0,0a.478.478,0,0,1-.014-.066A.177.177,0,0,0,55.623,186.915ZM119.637,199.3l-12.8,5.672L55.626,186.918A24.443,24.443,0,0,0,61.1,197.2l16.712,16.617,37.16.048,4.669-14.576,0,.016Z" transform="translate(-33.373 -113.863)" fill="#55ddca"/>
      <path id="Path_92" data-name="Path 92" d="M1.7,83.215c-1.655,1.766-.833,5.41,1.831,8.094L15.024,102.9l7.227,2.545a15.408,15.408,0,0,1-.541-3.388l-.077-2.184L21.6,53.15,1.7,83.215Z" transform="translate(0 -32.388)" fill="#0081c6"/>
      <path id="Path_93" data-name="Path 93" d="M106.266,53.735a16,16,0,0,0-3.4-.53l-2.308-.08-46.572.006,64.67,64.664h.005l5.68-12.814L106.266,53.735" transform="translate(-32.383 -32.373)" fill="#0079b3"/>
      <path id="Path_94" data-name="Path 94" d="M187.67,54.654c.025.005.045.012.061.015l0,0a.309.309,0,0,0-.059-.013ZM198,60.153a24.105,24.105,0,0,0-10.27-5.484l18.075,51.245-5.68,12.814h-.005L214,114.3l.03-38.053L198,60.153Z" transform="translate(-113.846 -33.304)" fill="#00a4e4"/>
      <path id="Path_95" data-name="Path 95" d="M103.734,14.179,92.15,2.681C89.471.027,85.826-.8,84.064.851L53.988,20.759l46.572-.006,2.308.08a16,16,0,0,1,3.4.53l-2.532-7.183Z" transform="translate(-32.383 0)" fill="#00d2b8"/>
    </g>
  </g>
</svg>
