<svg xmlns="http://www.w3.org/2000/svg" xmlns:xlink="http://www.w3.org/1999/xlink" width="100" height="100" viewBox="0 0 100 100">
  <defs>
    <clipPath id="clip-mysql">
      <rect width="100" height="100"/>
    </clipPath>
  </defs>
  <g id="mysql" clip-path="url(#clip-mysql)">
    <rect width="100" height="100" fill="#fff"/>
    <g id="mysql-logo" transform="translate(-82.139 -48.845)">
      <g id="Group_3" data-name="Group 3" transform="translate(82.139 64.845)">
        <g id="Group_2" data-name="Group 2" transform="translate(0 0)">
          <path id="Path_40" data-name="Path 40" d="M100.058-140.556H96.2q-.2-9.795-1.127-18.422h-.034l-5.875,18.422H86.227l-5.839-18.422h-.034q-.65,8.286-.82,18.422H76.016q.341-12.328,1.707-23.114h4.782l5.567,16.984h.034l5.6-16.984h4.576q1.5,12.634,1.775,23.114" transform="translate(-76.016 202.589)" fill="#00758f"/>
          <path id="Path_41" data-name="Path 41" d="M190.6-140.146q-2.357,12.822-6.216,18.635-3.007,4.479-6.591,4.479a6.47,6.47,0,0,1-2.356-.575v-2.061a11.17,11.17,0,0,0,1.605.1,3.874,3.874,0,0,0,2.7-.926,3.378,3.378,0,0,0,1.229-2.533,16.924,16.924,0,0,0-.956-3.937l-4.234-13.184h3.79l3.039,9.861a13.344,13.344,0,0,1,.854,4.693,64.518,64.518,0,0,0,3.484-14.553H190.6" transform="translate(-149.823 185.126)" fill="#00758f"/>
          <path id="Path_42" data-name="Path 42" d="M258.182-147.854a6.144,6.144,0,0,1-2.15,4.829,8.457,8.457,0,0,1-5.769,1.882,11.548,11.548,0,0,1-6.557-2.158l.99-1.986a11.217,11.217,0,0,0,4.95,1.369,5.187,5.187,0,0,0,3.261-.922,3.151,3.151,0,0,0,1.255-2.567c0-1.372-.955-2.546-2.706-3.53-1.617-.89-4.849-2.747-4.849-2.747a5.54,5.54,0,0,1-2.629-4.919,5.757,5.757,0,0,1,1.962-4.537,7.393,7.393,0,0,1,5.072-1.731,10.476,10.476,0,0,1,5.839,1.714l-.89,1.984a11.283,11.283,0,0,0-4.437-.958,3.945,3.945,0,0,0-2.73.858,2.865,2.865,0,0,0-1.034,2.19c0,1.369.975,2.556,2.776,3.56,1.637.89,4.948,2.784,4.948,2.784a5.464,5.464,0,0,1,2.7,4.886" transform="translate(-200.501 203.48)" fill="#f29111"/>
          <path id="Path_43" data-name="Path 43" d="M311.411-146.168q-1.4-2.26-1.4-7.258,0-8.73,5.294-8.732a4.441,4.441,0,0,1,4.065,2.088q1.4,2.261,1.4,7.192,0,8.8-5.294,8.8a4.435,4.435,0,0,1-4.064-2.09m13.729,5.181-4.237-2.1a7.927,7.927,0,0,0,1.06-1.032q2.7-3.181,2.7-9.415,0-11.47-8.982-11.472a8.493,8.493,0,0,0-6.865,2.912q-2.7,3.185-2.7,9.382,0,6.094,2.39,8.937,2.178,2.567,6.588,2.568a10.6,10.6,0,0,0,3.018-.406l5.518,3.22,1.5-2.6" transform="translate(-246.833 203.577)" fill="#f29111" fill-rule="evenodd"/>
          <path id="Path_44" data-name="Path 44" d="M402.052-140.556H391.091V-163.67h3.689V-143.4h7.273v2.843" transform="translate(-309.914 202.589)" fill="#f29111"/>
          <path id="Path_45" data-name="Path 45" d="M441.453-82.125h.611v-2.352h.8v-.48h-2.242v.48h.831Zm4.651,0h.576v-2.832h-.866l-.705,1.93-.768-1.93h-.835v2.832h.545v-2.155h.031l.8,2.155h.415l.8-2.155v2.155" transform="translate(-346.683 144.156)" fill="#f29111"/>
          <path id="Path_46" data-name="Path 46" d="M342.917-283.55a12.847,12.847,0,0,0-5.4.782c-.418.167-1.086.167-1.143.7.224.223.251.586.448.894a6.507,6.507,0,0,0,1.447,1.7c.585.447,1.17.892,1.784,1.283,1.086.673,2.311,1.062,3.368,1.733.615.39,1.225.893,1.84,1.313.305.223.5.587.89.725v-.085c-.2-.251-.251-.614-.445-.895-.278-.277-.557-.53-.836-.808a13.29,13.29,0,0,0-2.9-2.82c-.892-.616-2.843-1.454-3.2-2.484l-.057-.057a11.2,11.2,0,0,0,1.923-.45c.946-.251,1.809-.194,2.784-.445.446-.113.892-.253,1.34-.39v-.253c-.5-.5-.865-1.173-1.394-1.647a37.315,37.315,0,0,0-4.6-3.435c-.865-.559-1.979-.92-2.9-1.4-.333-.168-.889-.251-1.085-.531a11.2,11.2,0,0,1-1.143-2.15c-.807-1.534-1.588-3.237-2.284-4.86a29.857,29.857,0,0,0-1.421-3.183,28.114,28.114,0,0,0-10.78-10.445,13.347,13.347,0,0,0-3.564-1.146c-.7-.029-1.393-.084-2.09-.111a11.09,11.09,0,0,1-1.282-.979c-1.588-1-5.681-3.183-6.852-.307-.752,1.816,1.114,3.6,1.755,4.525a13.1,13.1,0,0,1,1.419,2.094c.2.475.251.979.447,1.48a33.284,33.284,0,0,0,1.449,3.743,13.181,13.181,0,0,0,1.029,1.73c.225.309.614.447.7.951a8.029,8.029,0,0,0-.642,2.094,12.33,12.33,0,0,0,.808,9.383c.445.7,1.5,2.235,2.925,1.647,1.253-.5.975-2.094,1.337-3.489.083-.338.027-.559.194-.782v.056c.39.781.781,1.533,1.143,2.318a15.929,15.929,0,0,0,3.622,3.74c.667.5,1.2,1.369,2.032,1.677v-.084h-.055a3.078,3.078,0,0,0-.641-.558,13.766,13.766,0,0,1-1.449-1.676,35.747,35.747,0,0,1-3.118-5.083c-.447-.868-.836-1.816-1.2-2.682-.167-.334-.167-.838-.446-1a10.466,10.466,0,0,0-1.336,1.9,15.832,15.832,0,0,0-.781,4.219c-.111.029-.055,0-.111.055-.89-.223-1.2-1.145-1.532-1.924a12.112,12.112,0,0,1-.251-7.46c.194-.585,1.032-2.429.7-2.987-.168-.533-.725-.837-1.031-1.258a11.072,11.072,0,0,1-1-1.787c-.669-1.563-1.005-3.3-1.727-4.859a14.888,14.888,0,0,0-1.393-2.151,13.839,13.839,0,0,1-1.533-2.177c-.138-.308-.333-.811-.111-1.145a.445.445,0,0,1,.391-.364c.36-.307,1.392.083,1.753.251a14.127,14.127,0,0,1,2.757,1.4c.39.28.808.81,1.309.951h.586c.891.194,1.894.054,2.73.307a17.8,17.8,0,0,1,4.011,1.927,24.758,24.758,0,0,1,8.688,9.552c.335.641.475,1.229.781,1.9.585,1.371,1.31,2.768,1.894,4.107a18.343,18.343,0,0,0,1.979,3.743c.417.586,2.088.893,2.841,1.2a19.817,19.817,0,0,1,1.922.781c.947.586,1.892,1.257,2.785,1.9.445.335,1.838,1.033,1.922,1.592" transform="translate(-246.148 314.727)" fill="#00758f" fill-rule="evenodd"/>
          <path id="Path_47" data-name="Path 47" d="M338.043-287.93a4.451,4.451,0,0,0-1.142.14v.056h.054a9.446,9.446,0,0,0,.891,1.146c.224.447.42.892.642,1.34.027-.027.054-.057.054-.057a1.568,1.568,0,0,0,.587-1.4,6.356,6.356,0,0,1-.335-.587c-.167-.279-.529-.418-.752-.642" transform="translate(-269.685 294.834)" fill="#00758f" fill-rule="evenodd"/>
        </g>
      </g>
    </g>
  </g>
</svg>
