<svg xmlns="http://www.w3.org/2000/svg" xmlns:xlink="http://www.w3.org/1999/xlink" width="100" height="100" viewBox="0 0 100 100">
  <defs>
    <clipPath id="clip-aws">
      <rect width="100" height="100"/>
    </clipPath>
  </defs>
  <g id="aws" clip-path="url(#clip-aws)">
    <rect width="100" height="100" fill="#fff"/>
    <g id="amazon-web-services-2" transform="translate(0.032 20)">
      <path id="Path_87" data-name="Path 87" d="M36.432,21.864a10.2,10.2,0,0,0,.366,2.98,17.989,17.989,0,0,0,1.064,2.411,1.464,1.464,0,0,1,.233.77,1.327,1.327,0,0,1-.632,1l-2.094,1.406a1.586,1.586,0,0,1-.864.3,1.525,1.525,0,0,1-1-.469,10.35,10.35,0,0,1-1.2-1.574c-.332-.569-.665-1.205-1.03-1.975a12.244,12.244,0,0,1-9.772,4.621,9.069,9.069,0,0,1-6.648-2.411A8.635,8.635,0,0,1,12.4,22.5a8.647,8.647,0,0,1,3.025-6.9,12.034,12.034,0,0,1,8.144-2.612,26.13,26.13,0,0,1,3.523.268c1.23.167,2.493.435,3.822.737V11.551c0-2.545-.532-4.319-1.562-5.357-1.064-1.038-2.859-1.54-5.418-1.54a15.019,15.019,0,0,0-3.59.435,26.345,26.345,0,0,0-3.59,1.138,9.493,9.493,0,0,1-1.163.435,2.025,2.025,0,0,1-.532.1c-.465,0-.7-.335-.7-1.038V4.085a2.131,2.131,0,0,1,.233-1.172,2.491,2.491,0,0,1,.931-.7A19.046,19.046,0,0,1,19.713.7,20.013,20.013,0,0,1,24.9.067c3.955,0,6.847.9,8.709,2.712,1.828,1.808,2.759,4.554,2.759,8.237V21.864ZM22.937,26.953a10.7,10.7,0,0,0,3.424-.6,7.4,7.4,0,0,0,3.158-2.143,5.327,5.327,0,0,0,1.13-2.143,12.1,12.1,0,0,0,.332-2.913V17.746a27.577,27.577,0,0,0-3.058-.569,24.866,24.866,0,0,0-3.124-.2,7.622,7.622,0,0,0-4.953,1.339,4.682,4.682,0,0,0-1.629,3.85,4.694,4.694,0,0,0,1.23,3.549,4.59,4.59,0,0,0,3.49,1.239Zm26.691,3.616a1.846,1.846,0,0,1-1.263-.335,2.734,2.734,0,0,1-.7-1.306L39.855,3.047a5.9,5.9,0,0,1-.3-1.339.732.732,0,0,1,.8-.837h3.257a1.833,1.833,0,0,1,1.3.335,2.746,2.746,0,0,1,.665,1.306l5.584,22.165L56.342,2.511a2.355,2.355,0,0,1,.632-1.306A2.274,2.274,0,0,1,58.3.871h2.659a1.99,1.99,0,0,1,1.33.335,2.262,2.262,0,0,1,.632,1.306l5.252,22.433,5.75-22.433a2.878,2.878,0,0,1,.665-1.306,2.157,2.157,0,0,1,1.3-.335h3.091a.742.742,0,0,1,.831.837,3.362,3.362,0,0,1-.066.536,4.791,4.791,0,0,1-.233.837L71.5,28.962a2.572,2.572,0,0,1-.7,1.306,2.115,2.115,0,0,1-1.263.335H66.679a1.989,1.989,0,0,1-1.33-.335,2.38,2.38,0,0,1-.632-1.339l-5.152-21.6L54.447,28.9a2.621,2.621,0,0,1-.632,1.339,2.049,2.049,0,0,1-1.33.335Zm42.712.9a21.843,21.843,0,0,1-5.119-.6A15.049,15.049,0,0,1,83.4,29.531a2.4,2.4,0,0,1-1.03-.937,2.378,2.378,0,0,1-.2-.937V25.949c0-.7.266-1.038.764-1.038a1.87,1.87,0,0,1,.6.1c.2.067.5.2.831.335a17.986,17.986,0,0,0,3.656,1.172,19.821,19.821,0,0,0,3.955.4,8.916,8.916,0,0,0,4.853-1.1,3.612,3.612,0,0,0,1.728-3.181,3.274,3.274,0,0,0-.9-2.344A8.32,8.32,0,0,0,94.3,18.549l-4.82-1.507a10.132,10.132,0,0,1-5.318-3.415A8.015,8.015,0,0,1,82.5,8.772a7.5,7.5,0,0,1,.9-3.717A8.59,8.59,0,0,1,85.791,2.31,10.52,10.52,0,0,1,89.248.569,14.388,14.388,0,0,1,93.436,0a16.566,16.566,0,0,1,2.227.134c.765.1,1.463.234,2.161.368.665.167,1.3.335,1.895.536a7.227,7.227,0,0,1,1.4.6,2.88,2.88,0,0,1,1,.837,1.814,1.814,0,0,1,.3,1.1V5.156c0,.7-.266,1.071-.764,1.071a3.439,3.439,0,0,1-1.263-.4A15.112,15.112,0,0,0,94,4.52a8.528,8.528,0,0,0-4.421.937,3.239,3.239,0,0,0-1.562,2.98,3.173,3.173,0,0,0,1,2.377,9.9,9.9,0,0,0,3.656,1.842l4.72,1.507a10.1,10.1,0,0,1,5.152,3.214,7.613,7.613,0,0,1,1.529,4.687,8.66,8.66,0,0,1-.864,3.884,8.99,8.99,0,0,1-2.426,2.946,10.685,10.685,0,0,1-3.69,1.875,15.7,15.7,0,0,1-4.753.7Z" transform="translate(-8.27)" fill="#252f3e"/>
      <path id="Path_88" data-name="Path 88" d="M90.318,126.265C79.383,134.4,63.5,138.721,49.835,138.721A72.938,72.938,0,0,1,.411,119.736c-1.03-.937-.1-2.21,1.13-1.473A99.114,99.114,0,0,0,51,131.488a98.071,98.071,0,0,0,37.724-7.768C90.551,122.883,92.113,124.926,90.318,126.265Z" transform="translate(0 -78.52)" fill="#f90"/>
      <path id="Path_89" data-name="Path 89" d="M258.086,117.084c-1.406-1.808-9.308-.871-12.891-.435-1.071.134-1.239-.8-.268-1.507,6.295-4.42,16.641-3.147,17.846-1.674,1.205,1.507-.335,11.853-6.228,16.808-.9.77-1.775.368-1.373-.636C256.512,126.325,259.492,118.858,258.086,117.084Z" transform="translate(-163.187 -74.561)" fill="#f90"/>
    </g>
  </g>
</svg>
