<svg xmlns="http://www.w3.org/2000/svg" xmlns:xlink="http://www.w3.org/1999/xlink" width="100" height="100" viewBox="0 0 100 100">
  <defs>
    <clipPath id="clip-codeIgniter">
      <rect width="100" height="100"/>
    </clipPath>
  </defs>
  <g id="codeIgniter" clip-path="url(#clip-codeIgniter)">
    <rect width="100" height="100" fill="#fff"/>
    <path id="codeigniter-2" data-name="codeigniter" d="M4.321,94.74c-1.716,0-2.215-1-2.215-2.5a13.312,13.312,0,0,1,.14-1.655c.376-2.589,1.294-4.07,3.509-4.07,1.5,0,2.228.67,2.228,1.887V89H9.469c.016,0,.016-.546.016-.67,0-1.778-1.077-3.464-3.729-3.464-3.6,0-5.086,1.958-5.632,5.8A9.847,9.847,0,0,0,0,92.169c0,2.262.89,4.32,4.072,4.32a5.089,5.089,0,0,0,4.7-2.63L7.348,92.9A3.333,3.333,0,0,1,4.321,94.74Zm9.751-7.145c-2.887,0-4.134,1.481-4.555,4.429a7.691,7.691,0,0,0-.079,1.03c0,1.9.889,3.417,3.354,3.417,2.887,0,4.151-1.545,4.572-4.447a8.484,8.484,0,0,0,.078-1.06c0-1.934-.919-3.369-3.369-3.369Zm1.2,4.43c-.312,2.138-.982,2.793-2.247,2.793-1.013,0-1.512-.421-1.512-1.685a7.805,7.805,0,0,1,.094-1.108c.312-2.121.936-2.777,2.215-2.777,1.03,0,1.544.421,1.544,1.7a7.226,7.226,0,0,1-.094,1.076ZM24.7,85.019l-.483,2.864c-.031.249-.015.166.079.4a3.446,3.446,0,0,0-1.81-.57c-2.59,0-4.04,1.172-4.508,4.448a6.4,6.4,0,0,0-.078,1.046c0,2.388,1.4,3.278,3.291,3.278a3.179,3.179,0,0,0,2.184-.5l.155.97h1.5l1.747-11.939H24.7Zm-1.482,9.346a3.581,3.581,0,0,1-1.808.515c-1.139,0-1.451-.593-1.451-1.544a9.375,9.375,0,0,1,.11-1.233c.358-2.48,1.154-2.918,2.184-2.918a3.3,3.3,0,0,1,1.669.376l-.7,4.8Zm8.113-6.77c-2.856,0-4.2,1.356-4.649,4.429A8.637,8.637,0,0,0,26.6,93.1c0,2.106,1.077,3.37,3.447,3.37A4.157,4.157,0,0,0,34,94.3l-1.576-.64a2.343,2.343,0,0,1-2.137,1.154c-1.154,0-1.622-.311-1.622-1.34a1.522,1.522,0,0,1,.047-.5h5.631c.079-.8.171-1.359.171-1.825,0-1.559-.592-3.558-3.181-3.558ZM32.4,91.387H28.972c.344-.8.92-2.028,2.106-2.028a1.272,1.272,0,0,1,1.373,1.458,2.4,2.4,0,0,1-.047.57Zm8.109-3.98.187-1.592H36.3l-.186,1.592h1.154l-1.247,7.959H34.865l-.186,1.592h4.4l.188-1.592H38.111l1.247-7.959Zm8.94,2.388.562-1.592H48.5l-1.091.225a4.32,4.32,0,0,0-2.215-.681c-2.232,0-4.134,1.078-4.134,3.527a2.606,2.606,0,0,0,.545,1.617,1.452,1.452,0,0,0-.873,1.229,1.178,1.178,0,0,0,.281.738A2.983,2.983,0,0,0,39.5,97.443c0,2.107,2.2,2.557,3.884,2.557,2.121,0,4.649-.485,4.649-3.184,0-.92-.577-1.639-2.246-1.951L42.779,94.3c-.343-.063-.421-.172-.421-.328a.333.333,0,0,1,.375-.358l.2.031a6.164,6.164,0,0,0,1.357.141c2.169,0,4.1-.937,4.1-3.37a2.21,2.21,0,0,0-.218-.951,3.392,3.392,0,0,0,.748.328h.528Zm-4.289,6.458c.592.11.795.328.795.718,0,1.264-1.357,1.42-2.34,1.42-1.5,0-2.059-.358-2.059-1.155a1.916,1.916,0,0,1,.671-1.529Zm-.641-4.086c-.9,0-1.4-.327-1.4-1.108a1.671,1.671,0,0,1,1.841-1.825c.936,0,1.389.39,1.389,1.153A1.627,1.627,0,0,1,44.523,92.166ZM55,87.595a4.291,4.291,0,0,0-2.621,1.192l-.14-.584H50.517l-1.2,8.755h2.075l.905-6.639a4.617,4.617,0,0,1,2-.918c.78,0,1.061.376,1.061,1.093a8.27,8.27,0,0,1-.048.868l-.763,5.6h2.075l.763-5.641c.032-.264.063-.7.063-.948,0-1.484-.7-2.774-2.449-2.774Zm6.391,7.17.016-.214.9-6.347H58.858l-.217,1.592h1.512c-.125,0-.2.139-.218.265l-.624,4.227a7.32,7.32,0,0,0-.046.8,1.69,1.69,0,0,0,1.808,1.874h1.061l.234-1.592H61.7c-.235,0-.312-.414-.312-.6Zm1.341-9.745H60.7c-.125,0-.125-.459-.14-.3l-.282,2.243c-.016.141-.016.448.109.448h2.029c.125,0,.125-.545.14-.687l.282-1.731c.016-.156.016.03-.11.03Zm4.231,9.8c-.514,0-.764-.219-.764-.686l.016-.032.655-4.305h2.371l.717-1.592h-2.87l.483-3.5-2.183.7-.391,2.8H63.729l-.218,1.592h1.466c-.14.8-.281.28-.3.436l-.562,3.775a2.3,2.3,0,0,0-.031.452c0,1.482,1.092,2.037,2.4,2.037a4.469,4.469,0,0,0,2.964-1l-.968-1.19a2.5,2.5,0,0,1-1.53.509Zm7.613-7.223c-2.855,0-4.2,1.356-4.649,4.429a8.76,8.76,0,0,0-.078,1.077c0,2.106,1.076,3.37,3.447,3.37A4.155,4.155,0,0,0,77.238,94.3l-1.575-.64a2.345,2.345,0,0,1-2.138,1.154c-1.153,0-1.622-.311-1.622-1.34a1.512,1.512,0,0,1,.048-.5h5.631c.078-.8.171-1.359.171-1.825,0-1.559-.593-3.558-3.183-3.558Zm1.077,3.792H72.216c.343-.8.919-2.028,2.106-2.028a1.272,1.272,0,0,1,1.373,1.458,2.454,2.454,0,0,1-.047.57Zm7.847-3.792a3.251,3.251,0,0,0-2.153,1.1l-.125-.49H79.5l-1.2,8.755h2.091l.92-6.78a3.633,3.633,0,0,1,1.763-.606,8.378,8.378,0,0,1,1.076-.013l.267-1.809a4.982,4.982,0,0,0-.922-.155Zm-52.98-8.846c-4.722-2.041-9.141-7.229-9.151-12.537-.013-5.787,3.655-10.7,8.216-13.929-.548,2.072-.847,3.967.511,5.82a5.5,5.5,0,0,0,5.564,2.106c4.88-1.068,5.1-6.433,2.211-9.559-2.861-3.1-5.628-6.592-4.539-11.081A11.544,11.544,0,0,1,37,33.7c-1.345,3.536,2.478,7.022,5,8.759,4.37,3.013,9.164,5.291,13.182,8.823C59.408,55,62.529,60.017,61.9,65.839c-.683,6.31-5.7,10.7-11.321,12.914C62.462,76.13,74.743,66.906,74.994,53.725c.208-10.844-7.23-19.189-16.445-23.967l-.481-.263a3.923,3.923,0,0,1,.326,1.6,5.606,5.606,0,0,0,.154-1.064,5.186,5.186,0,0,1-.169,1.286l.015-.222a5.4,5.4,0,0,1-.682,1.626l.135-.145a5.784,5.784,0,0,1-9.274.554c-3.952-5.079.083-10.555.647-15.933.707-6.74-3.52-13.284-8.762-17.2,2.887,4.67-.916,10.848-3.959,14.3-2.95,3.348-6.538,6.143-9.8,9.185A81.645,81.645,0,0,0,16.966,34.03c-5.752,7.675-9.273,17.328-6.685,26.9s10.875,15.66,20.235,17.814Z" transform="translate(8 0)" fill="#ee4323"/>
  </g>
</svg>
