<svg xmlns="http://www.w3.org/2000/svg" xmlns:xlink="http://www.w3.org/1999/xlink" width="550" height="141" viewBox="0 0 550 141">
  <defs>
    <clipPath id="clip-path">
      <path id="Path_91129" data-name="Path 91129" d="M0,0H26.928V26.928H0Z" transform="translate(19.041 0) rotate(45)" fill="#e5f1ff"/>
    </clipPath>
    <clipPath id="clip-path-2">
      <path id="Path_20" data-name="Path 20" d="M3.773,0h69.12a3.773,3.773,0,0,1,3.773,3.773V59a3.773,3.773,0,0,1-3.773,3.773H3.773A3.773,3.773,0,0,1,0,59V3.773A3.773,3.773,0,0,1,3.773,0Z" fill="#fff"/>
    </clipPath>
  </defs>
  <g id="Group_18587" data-name="Group 18587" transform="translate(-2975 3621)">
    <g id="Group_18586" data-name="Group 18586">
      <rect id="Rectangle_9662" data-name="Rectangle 9662" width="550" height="141" rx="4" transform="translate(2975 -3621)" fill="#30bff4"/>
      <g id="Group_18585" data-name="Group 18585" transform="translate(2996 -3601)">
        <text id="不動産カレンダー" transform="translate(110.607 72)" fill="#fff" font-size="51" font-family="NotoSansJP-Medium, Noto Sans JP" font-weight="500" letter-spacing="-0.03em"><tspan x="0" y="0">不動産</tspan><tspan y="0">カレンダー</tspan></text>
        <g id="Group_18099" data-name="Group 18099" transform="translate(0 0)">
          <g id="Group_1" data-name="Group 1" transform="translate(36.587 22.513)">
            <path id="Path_91125" data-name="Path 91125" d="M1.715,0H6.861A1.715,1.715,0,0,1,8.576,1.715V6.861A1.715,1.715,0,0,1,6.861,8.576H1.715A1.715,1.715,0,0,1,0,6.861V1.715A1.715,1.715,0,0,1,1.715,0Z" fill="#ffa60d"/>
            <path id="Path_91126" data-name="Path 91126" d="M1.715,0H6.861A1.715,1.715,0,0,1,8.576,1.715V6.861A1.715,1.715,0,0,1,6.861,8.576H1.715A1.715,1.715,0,0,1,0,6.861V1.715A1.715,1.715,0,0,1,1.715,0Z" transform="translate(12.006)" fill="#ffa60d"/>
          </g>
          <g id="Group_4" data-name="Group 4" transform="translate(8.459 37.263)">
            <path id="Subtraction_10" data-name="Subtraction 10" d="M57.631,62.774H3.773A3.773,3.773,0,0,1,0,59V3.773A3.773,3.773,0,0,1,3.773,0H28.128V2.573a1.717,1.717,0,0,0,1.715,1.715h5.145A1.717,1.717,0,0,0,36.7,2.573V0h3.43V2.573a1.717,1.717,0,0,0,1.715,1.715h5.146A1.717,1.717,0,0,0,48.71,2.573V0H72.894a3.774,3.774,0,0,1,3.773,3.773V43.739L57.631,62.774Z" fill="#fff"/>
            <path id="Path_41" data-name="Path 41" d="M16.2.392,0,4.836V.636L16.291,0Z" transform="translate(76.655 44.446) rotate(180)" opacity="0.03"/>
            <g id="Mask_Group_9" data-name="Mask Group 9" transform="translate(76.672 62.78) rotate(180)" clip-path="url(#clip-path)">
              <path id="Path_91130" data-name="Path 91130" d="M3.778,0h69.2a3.778,3.778,0,0,1,3.778,3.778v55.29a3.778,3.778,0,0,1-3.778,3.778H3.778A3.778,3.778,0,0,1,0,59.067V3.778A3.778,3.778,0,0,1,3.778,0Z" transform="translate(-57.712 -43.819)" fill="#e5f1ff"/>
            </g>
          </g>
          <path id="Path_91131" data-name="Path 91131" d="M20.373-156.3a4.753,4.753,0,0,0,3.093-1.054,3.671,3.671,0,0,0,1.3-3.025,3.614,3.614,0,0,0-1.034-2.585,3.677,3.677,0,0,0-2.79-1.083,4.991,4.991,0,0,0-1.961.332,3.156,3.156,0,0,0-1.22.878,6.62,6.62,0,0,0-.849,1.4q-.4.859-.732,1.62a1.372,1.372,0,0,1-.7.644,2.765,2.765,0,0,1-1.171.234,2.023,2.023,0,0,1-1.434-.634,2.244,2.244,0,0,1-.654-1.688,4.459,4.459,0,0,1,.615-2.137,7.8,7.8,0,0,1,1.8-2.137,9.025,9.025,0,0,1,2.937-1.629,11.817,11.817,0,0,1,3.922-.615,10.936,10.936,0,0,1,3.454.517,8.069,8.069,0,0,1,2.712,1.493,6.447,6.447,0,0,1,1.737,2.264,6.616,6.616,0,0,1,.585,2.771,6.318,6.318,0,0,1-.849,3.347,11.289,11.289,0,0,1-2.429,2.722,10.759,10.759,0,0,1,2.566,1.873,7.2,7.2,0,0,1,1.571,2.332,7.174,7.174,0,0,1,.527,2.761,8.619,8.619,0,0,1-.712,3.434,8.761,8.761,0,0,1-2.1,2.956,10,10,0,0,1-3.288,2.029,11.626,11.626,0,0,1-4.205.732,10.067,10.067,0,0,1-4.2-.839,9.66,9.66,0,0,1-3.054-2.1,9.549,9.549,0,0,1-1.815-2.605,5.653,5.653,0,0,1-.615-2.225,2.4,2.4,0,0,1,.732-1.824,2.551,2.551,0,0,1,1.824-.693,1.94,1.94,0,0,1,1.054.322,1.52,1.52,0,0,1,.663.771,13.134,13.134,0,0,0,2.176,4.029,4.127,4.127,0,0,0,3.268,1.317,4.914,4.914,0,0,0,2.332-.6,4.861,4.861,0,0,0,1.854-1.766,5.01,5.01,0,0,0,.732-2.712,4.949,4.949,0,0,0-1.249-3.581,4.594,4.594,0,0,0-3.473-1.3q-.39,0-1.21.078t-1.054.078a2.367,2.367,0,0,1-1.659-.537,1.923,1.923,0,0,1-.585-1.493,1.86,1.86,0,0,1,.7-1.512,3.236,3.236,0,0,1,2.088-.576Zm24.079,14.6v-17.757q-4.956,3.805-6.673,3.805a1.972,1.972,0,0,1-1.454-.654,2.107,2.107,0,0,1-.634-1.512,1.71,1.71,0,0,1,.624-1.463,13.846,13.846,0,0,1,2.2-1.21,16.458,16.458,0,0,0,3.776-2.342,15.98,15.98,0,0,0,2.507-2.751q1.093-1.522,1.424-1.873a1.705,1.705,0,0,1,1.249-.351,2,2,0,0,1,1.659.8,3.5,3.5,0,0,1,.624,2.205v22.343q0,3.922-2.673,3.922a2.451,2.451,0,0,1-1.912-.8A3.419,3.419,0,0,1,44.452-141.7Z" transform="translate(13.612 221.743)" fill="#ffa60d"/>
          <path id="Union_6" data-name="Union 6" d="M86.342,35.418a4.358,4.358,0,0,1-1.737-.552l-.009,0L72.168,25.487l-.015.025L46.787,6.379,21.422,25.512l-.015-.024L8.978,34.862l-.009,0a4.36,4.36,0,0,1-1.737.552,6.887,6.887,0,0,1-.868.045c-.286,0-.559-.01-.751-.019l-4.293-.6a1.537,1.537,0,0,1-1.3-1.734,1.188,1.188,0,0,1,.371-.733L32.832,7.9l.013.026L42.556.6l.009,0A4.361,4.361,0,0,1,44.3.045,6.189,6.189,0,0,1,45,0h3.312a7.377,7.377,0,0,1,.96.044A4.359,4.359,0,0,1,51.01.6l.009,0L60.73,7.926l.013-.026L93.189,32.373a1.19,1.19,0,0,1,.371.733,1.537,1.537,0,0,1-1.305,1.734l-4.293.6c-.192.009-.465.019-.751.019A6.884,6.884,0,0,1,86.342,35.418Z" fill="#fff"/>
          <path id="Union_7" data-name="Union 7" d="M2.213,13.845.52,13.609a.6.6,0,0,1-.515-.677.463.463,0,0,1,.146-.286L12.945,3.086l.005.01L16.779.235l0,0a1.73,1.73,0,0,1,.685-.216A4.187,4.187,0,0,1,18.1.007L19.8.243a.6.6,0,0,1,.515.677.463.463,0,0,1-.146.287L8.446,9.965l-.006-.01-4.9,3.662,0,0a1.73,1.73,0,0,1-.685.216,2.77,2.77,0,0,1-.342.017C2.4,13.852,2.289,13.848,2.213,13.845Z" transform="translate(18.524 0)" fill="#fff"/>
        </g>
      </g>
    </g>
  </g>
</svg>
