<svg xmlns="http://www.w3.org/2000/svg" width="397.165" height="99.198" viewBox="0 0 397.165 99.198">
  <g id="Group_16095" data-name="Group 16095" transform="translate(-131.511 3)">
    <text id="Gabby" transform="translate(387.676 75.198)" fill="#104590" font-size="90" font-family="Helvetica-Bold, Helvetica" font-weight="700"><tspan x="-140.032" y="0">Gabby</tspan></text>
    <g id="Group_4" data-name="Group 4" transform="translate(131.511 -3)">
      <path id="Union_9" data-name="Union 9" d="M72.544,90.009a48.3,48.3,0,1,1,13.032-11.1c-.163,8.628,10.863,19.227,10.8,19.442C79.219,96.757,73.964,91.9,72.544,90.009Z" fill="#104590"/>
      <path id="Path_23" data-name="Path 23" d="M20.278,63.8A33.2,33.2,0,1,1,63.8,20.279c.262.621.509,1.259.735,1.9l-11.11,2.6-.039-.093a21.879,21.879,0,1,0-.634,18.414H19.78V32.731H60.753a4.71,4.71,0,0,1,4.709,4.71v3.3a2.356,2.356,0,0,1-.142.809c.017-.026.033-.053.049-.079A33.235,33.235,0,0,1,20.278,63.8ZM36.264,24.49A4.709,4.709,0,1,1,40.973,29.2,4.709,4.709,0,0,1,36.264,24.49Zm-15.542,0A4.709,4.709,0,1,1,25.431,29.2,4.709,4.709,0,0,1,20.722,24.49Z" transform="translate(15.541 15.07)" fill="#fff"/>
    </g>
  </g>
</svg>
