<svg xmlns="http://www.w3.org/2000/svg" xmlns:xlink="http://www.w3.org/1999/xlink" width="100" height="100" viewBox="0 0 100 100">
  <defs>
    <linearGradient id="linear-gradient" x1="0.13" y1="0.12" x2="0.796" y2="0.782" gradientUnits="objectBoundingBox">
      <stop offset="0" stop-color="#387eb8"/>
      <stop offset="1" stop-color="#366994"/>
    </linearGradient>
    <linearGradient id="linear-gradient-2" x1="0.191" y1="0.206" x2="0.907" y2="0.884" gradientUnits="objectBoundingBox">
      <stop offset="0" stop-color="#ffe052"/>
      <stop offset="1" stop-color="#ffc331"/>
    </linearGradient>
    <clipPath id="clip-python">
      <rect width="100" height="100"/>
    </clipPath>
  </defs>
  <g id="python" clip-path="url(#clip-python)">
    <rect width="100" height="100" fill="#fff"/>
    <g id="python-5" transform="translate(-0.145 0.928)">
      <path id="Path_34" data-name="Path 34" d="M49.478.072c-25.229,0-23.654,10.941-23.654,10.941l.028,11.335H49.928v3.4H16.289S.145,23.92.145,49.377,14.236,73.931,14.236,73.931h8.41V62.118s-.453-14.091,13.866-14.091H60.391s13.416.217,13.416-12.966v-21.8S75.844.072,49.478.072ZM36.2,7.695a4.327,4.327,0,1,1-3.064,1.267A4.327,4.327,0,0,1,36.2,7.695Z" fill="url(#linear-gradient)"/>
      <path id="Path_35" data-name="Path 35" d="M90.51,138.184c25.229,0,23.654-10.941,23.654-10.941l-.028-11.335H90.06v-3.4H123.7s16.144,1.831,16.144-23.626-14.091-24.554-14.091-24.554h-8.41V76.137s.453,14.091-13.866,14.091H79.6S66.181,90.012,66.181,103.2v21.8s-2.037,13.191,24.329,13.191Zm13.275-7.622a4.328,4.328,0,1,1,3.064-1.268,4.327,4.327,0,0,1-3.064,1.268Z" transform="translate(-40.316 -39.246)" fill="url(#linear-gradient-2)"/>
    </g>
  </g>
</svg>
