<svg xmlns="http://www.w3.org/2000/svg" xmlns:xlink="http://www.w3.org/1999/xlink" width="100" height="100" viewBox="0 0 100 100">
  <defs>
    <clipPath id="clip-selenium">
      <rect width="100" height="100"/>
    </clipPath>
  </defs>
  <g id="selenium" clip-path="url(#clip-selenium)">
    <rect width="100" height="100" fill="#fff"/>
    <g id="selenium-seeklogo.com" transform="translate(2)">
      <path id="Path_96" data-name="Path 96" d="M87.514,0a.641.641,0,0,1,.573,1h0L63.309,34.572a.958.958,0,0,1-1.432,0h0l-8.737-9.714A1.016,1.016,0,0,0,51.564,25h0l-5.3,6.714a1.116,1.116,0,0,0,.143,1.143h0L62.163,49.143a.958.958,0,0,0,1.432,0h0L94.533,14.429a.662.662,0,0,1,1.146.429h0V99.284a.675.675,0,0,1-.716.714H.717A.675.675,0,0,1,0,99.284H0V.716A.675.675,0,0,1,.717,0h86.8ZM63.165,57a15.608,15.608,0,0,0-15.9,16c0,9.857,7.161,16.142,16.471,16.142A19.755,19.755,0,0,0,75.77,85.428a.883.883,0,0,0,.143-1.143h0l-2.578-3.857a.868.868,0,0,0-1.146-.143A14.022,14.022,0,0,1,64.6,82.713c-5.013,0-8.164-3.143-8.737-6.857a.308.308,0,0,1,.286-.286H77.775a.923.923,0,0,0,.859-.857h0v-.857C78.634,63.857,72.332,57,63.165,57ZM41.824,51.571a22.969,22.969,0,0,0-15.469-5.143C16.616,46.429,10.6,52.143,10.6,59c0,15.571,23.776,10.571,23.776,17.857,0,2.286-2.292,4.571-7.161,4.571a18.024,18.024,0,0,1-12.461-4.857.958.958,0,0,0-1.432.143h0L9.6,81.856A.883.883,0,0,0,9.741,83c3.867,3.571,9.31,6,16.9,6,11.172,0,16.615-5.714,16.9-13.143,0-15.428-23.776-11-23.776-17.571,0-2.429,2.148-4.143,5.872-4.143A17.806,17.806,0,0,1,36.954,58a.908.908,0,0,0,1.289-.143h0l3.724-5a.9.9,0,0,0-.143-1.286ZM63.309,63.285A7.208,7.208,0,0,1,70.9,69.857a.308.308,0,0,1-.286.286H56a.308.308,0,0,1-.286-.286A7.522,7.522,0,0,1,63.309,63.285Z" transform="translate(0 0)" fill="#2cb134"/>
    </g>
  </g>
</svg>
