<svg xmlns="http://www.w3.org/2000/svg" xmlns:xlink="http://www.w3.org/1999/xlink" width="100" height="100" viewBox="0 0 100 100">
  <defs>
    <clipPath id="clip-_100x100_1">
      <rect width="100" height="100"/>
    </clipPath>
  </defs>
  <g id="_100x100_1" data-name="100x100 – 1" clip-path="url(#clip-_100x100_1)">
    <g id="g37" transform="translate(-79.401 144.98)">
      <g id="g39" transform="translate(79.401 -132.981)">
        <path id="path41" d="M80.2-30.356a1.615,1.615,0,0,1-.8-1.462,1.681,1.681,0,0,1,1.706-1.7,1.824,1.824,0,0,1,.9.241A9.7,9.7,0,0,0,87.294-31.5c1.808,0,2.851-.766,2.851-1.984v-.069c0-1.426-1.946-1.912-4.1-2.572-2.71-.766-5.735-1.877-5.735-5.389v-.07c0-3.477,2.886-5.6,6.537-5.6a12.634,12.634,0,0,1,5.771,1.494,1.783,1.783,0,0,1,1.008,1.6,1.693,1.693,0,0,1-1.737,1.706,1.626,1.626,0,0,1-.833-.21,10.02,10.02,0,0,0-4.313-1.253c-1.635,0-2.574.767-2.574,1.811v.068c0,1.356,1.982,1.911,4.138,2.608,2.677.835,5.7,2.051,5.7,5.354v.07c0,3.859-2.992,5.769-6.815,5.769a12.544,12.544,0,0,1-6.989-2.19" transform="translate(-79.401 98.74)" fill="#5fb832"/>
        <path id="path43" d="M121.058-37.7v-.07c0-3.545-2.4-5.875-5.249-5.875s-5.354,2.364-5.354,5.875v.07c0,3.512,2.5,5.878,5.354,5.878,2.886,0,5.249-2.262,5.249-5.878m-14.707-7.407a2.078,2.078,0,0,1,2.087-2.12,2.108,2.108,0,0,1,2.12,2.12v1.254a7.35,7.35,0,0,1,6.259-3.442c4.311,0,8.518,3.406,8.518,9.525v.07c0,6.085-4.172,9.526-8.518,9.526a7.507,7.507,0,0,1-6.259-3.231v6.5a2.079,2.079,0,0,1-2.12,2.091,2.073,2.073,0,0,1-2.087-2.091v-20.2" transform="translate(-90.157 98.786)" fill="#5fb832"/>
        <path id="path45" d="M140.6-45.06a2.077,2.077,0,0,1,2.084-2.12,2.107,2.107,0,0,1,2.122,2.12v1.012c.21-1.576,2.78-3.132,4.624-3.132a1.953,1.953,0,0,1,2.086,2.085,1.975,1.975,0,0,1-1.67,2.017c-2.99.522-5.04,3.138-5.04,6.758v6.066a2.1,2.1,0,0,1-2.122,2.087,2.069,2.069,0,0,1-2.084-2.087v-14.8" transform="translate(-103.823 98.739)" fill="#5fb832"/>
        <path id="path47" d="M161.41-45.047a2.081,2.081,0,0,1,2.087-2.122,2.109,2.109,0,0,1,2.121,2.122v14.8a2.077,2.077,0,0,1-2.121,2.083,2.069,2.069,0,0,1-2.087-2.083v-14.8" transform="translate(-112.13 98.735)" fill="#5fb832"/>
        <path id="path49" d="M171.942-45.039a2.077,2.077,0,0,1,2.085-2.12,2.106,2.106,0,0,1,2.122,2.12v.863a6.509,6.509,0,0,1,5.736-2.994c4.138,0,6.538,2.783,6.538,7.024v9.9a2.051,2.051,0,0,1-2.087,2.087,2.078,2.078,0,0,1-2.12-2.087v-8.609c0-2.85-1.425-4.485-3.929-4.485-2.433,0-4.138,1.7-4.138,4.557v8.537a2.079,2.079,0,0,1-2.122,2.087,2.07,2.07,0,0,1-2.085-2.087V-45.039" transform="translate(-116.333 98.735)" fill="#5fb832"/>
        <path id="path51" d="M211.546-31.887c-2.888,0-5.25-2.261-5.25-5.877v-.068c0-3.546,2.4-5.876,5.25-5.876s5.355,2.365,5.355,5.876v.068c0,3.512-2.5,5.877-5.355,5.877m7.367-15.4a2.108,2.108,0,0,0-2.119,2.121v1.251a7.349,7.349,0,0,0-6.256-3.441c-4.314,0-8.519,3.406-8.519,9.526v.068c0,6.085,4.171,9.525,8.519,9.525a7.494,7.494,0,0,0,6.237-3.2c-.211,3.306-2.235,5.051-5.785,5.051a11.228,11.228,0,0,1-5.634-1.464,1.673,1.673,0,0,0-.762-.171,1.776,1.776,0,0,0-1.776,1.736A1.722,1.722,0,0,0,204-24.62a15.826,15.826,0,0,0,7.089,1.635c3.305,0,5.879-.8,7.548-2.469,1.526-1.531,2.361-3.823,2.361-6.919v-12.8a2.08,2.08,0,0,0-2.088-2.121" transform="translate(-128.336 98.81)" fill="#5fb832"/>
        <path id="path53" d="M165.624-57.007a2.123,2.123,0,0,1-2.122,2.121,2.121,2.121,0,0,1-2.12-2.121,2.118,2.118,0,0,1,2.12-2.12,2.12,2.12,0,0,1,2.122,2.12" transform="translate(-112.118 103.507)" fill="#5fb832"/>
        <path id="path55" d="M34.4-35.73c-4.664,6.214-14.627,4.117-21.015,4.418,0,0-1.131.063-2.27.25,0,0,.431-.184.98-.373C16.58-32.986,18.7-33.3,21.426-34.7c5.122-2.624,10.219-8.339,11.257-14.276-1.95,5.71-7.879,10.624-13.278,12.62A90.469,90.469,0,0,1,9.026-33.662s-.266-.14-.27-.143C4.211-36.017,4.08-45.86,12.334-49.033c3.619-1.392,7.081-.628,10.993-1.559,4.173-.992,9.005-4.12,10.97-8.209C36.5-52.269,39.144-42.05,34.4-35.73Zm.081-25.094a17.426,17.426,0,0,1-2.014,3.571,18.861,18.861,0,0,0-13.542-5.727A18.944,18.944,0,0,0,0-44.059,18.872,18.872,0,0,0,6.056-30.2l.414.367a1.619,1.619,0,0,1-.238-2.273,1.619,1.619,0,0,1,2.274-.239,1.618,1.618,0,0,1,.238,2.275,1.616,1.616,0,0,1-2.272.239l.282.25a18.831,18.831,0,0,0,12.168,4.446A18.942,18.942,0,0,0,37.788-42.693c.519-4.8-.9-10.888-3.309-18.131" transform="translate(32.437 62.981)" fill="#5fb832"/>
        <path id="path57" d="M240.252-45.857h-.661v.875h.661a.447.447,0,0,0,.448-.427A.451.451,0,0,0,240.252-45.857Zm.408,2.166-.642-.976h-.427v.976h-.345v-2.472h1.006a.77.77,0,0,1,.8.753.724.724,0,0,1-.631.732l.662.986Zm-.59-3.072a1.824,1.824,0,0,0-1.832,1.832A1.83,1.83,0,0,0,240.07-43.1a1.837,1.837,0,0,0,1.831-1.831A1.83,1.83,0,0,0,240.07-46.762Zm0,3.988a2.158,2.158,0,0,1-2.157-2.157,2.151,2.151,0,0,1,2.157-2.157,2.145,2.145,0,0,1,2.157,2.157,2.152,2.152,0,0,1-2.157,2.157" transform="translate(-142.66 98.702)" fill="#5fb832"/>
      </g>
    </g>
  </g>
</svg>
