<svg xmlns="http://www.w3.org/2000/svg" xmlns:xlink="http://www.w3.org/1999/xlink" width="1123.554" height="310.116" viewBox="0 0 1123.554 310.116">
  <defs>
    <linearGradient id="linear-gradient" x1="0.5" y1="0.106" x2="0.5" y2="0.905" gradientUnits="objectBoundingBox">
      <stop offset="0" stop-color="#ffc708"/>
      <stop offset="1" stop-color="#f05731"/>
    </linearGradient>
    <linearGradient id="linear-gradient-2" x1="0.608" y1="0.049" x2="0.407" y2="0.744" gradientUnits="objectBoundingBox">
      <stop offset="0" stop-color="#f80000"/>
      <stop offset="1" stop-color="#ee3984"/>
    </linearGradient>
    <linearGradient id="linear-gradient-3" x1="-0.048" y1="0.643" x2="1.126" y2="0.139" gradientUnits="objectBoundingBox">
      <stop offset="0" stop-color="#ee3984"/>
      <stop offset="1" stop-color="#7800da"/>
    </linearGradient>
    <linearGradient id="linear-gradient-4" x1="0.463" y1="0.25" x2="0.69" y2="0.89" gradientUnits="objectBoundingBox">
      <stop offset="0" stop-color="red"/>
      <stop offset="0.999" stop-color="#ee3984"/>
      <stop offset="1" stop-color="#ee3984"/>
    </linearGradient>
    <linearGradient id="linear-gradient-5" y1="0.5" x2="1" y2="0.5" gradientUnits="objectBoundingBox">
      <stop offset="0" stop-color="#ffc708"/>
      <stop offset="1" stop-color="#fa3b00"/>
    </linearGradient>
    <linearGradient id="linear-gradient-6" y1="0.5" x2="1" y2="0.5" gradientUnits="objectBoundingBox">
      <stop offset="0" stop-color="red"/>
      <stop offset="1" stop-color="#ee3984"/>
    </linearGradient>
    <linearGradient id="linear-gradient-7" x1="0.899" y1="0.402" x2="-0.015" y2="0.718" gradientUnits="objectBoundingBox">
      <stop offset="0" stop-color="#ee3984"/>
      <stop offset="1" stop-color="#7800da"/>
    </linearGradient>
    <linearGradient id="linear-gradient-8" x1="0" y1="0.5" x2="1" y2="0.5" xlink:href="#linear-gradient"/>
    <linearGradient id="linear-gradient-9" x1="0.317" y1="0.79" x2="0.698" y2="0.158" xlink:href="#linear-gradient-7"/>
  </defs>
  <g id="TCS_Tata_Consultancy_Services" data-name="TCS Tata Consultancy Services" transform="translate(-64.77 -64.47)">
    <g id="Group_198" data-name="Group 198" transform="translate(623.914 135.005)">
      <path id="Path_1057" data-name="Path 1057" d="M385.2,162.145h23.7V119.861h16.814V102.77H368.39v17.091H385.2Z" transform="translate(-368.372 -102.77)" fill="#007dc5"/>
      <path id="Path_1058" data-name="Path 1058" d="M419.6,162.145l12.081-35.507,12.063,35.507h23.186L444.2,102.77H419.138L396.43,162.145Z" transform="translate(-344.772 -102.77)" fill="#007dc5"/>
      <path id="Path_1059" data-name="Path 1059" d="M448.434,162.145h23.7V119.861h16.814V102.77H431.62v17.091h16.814Z" transform="translate(-315.154 -102.77)" fill="#007dc5"/>
      <path id="Path_1060" data-name="Path 1060" d="M482.828,162.145l12.081-35.507,12.063,35.507h23.186L507.451,102.77H482.368L459.66,162.145Z" transform="translate(-291.554 -102.77)" fill="#007dc5"/>
      <path id="Path_1061" data-name="Path 1061" d="M600.194,163.9a191.609,191.609,0,0,0,10.645,20.479l15.507,26.115h11.234V151.12H627.542v20.719a246.2,246.2,0,0,0,.976,24.6l-.2.055a164.6,164.6,0,0,0-10.111-19.89L602.864,151.12H590.47v59.375h10.019V189.261c0-9.742-.147-17.588-.571-25.3Z" transform="translate(-181.458 -62.076)" fill="#007dc5"/>
      <path id="Path_1062" data-name="Path 1062" d="M573.952,193.717H592.81l5.378,16.777h11.639L590.545,151.12H576.751L557.69,210.495h11.216Zm6.354-22.855c1.05-3.536,1.952-7.643,2.818-11.124h.184c.9,3.444,1.879,7.5,3,11.16l4.678,14.641h-15.3Z" transform="translate(-209.047 -62.076)" fill="#007dc5"/>
      <path id="Path_1063" data-name="Path 1063" d="M478.2,202.859a29.954,29.954,0,0,1-14.346-3.794l-2.413,8.987c3.241,1.989,9.761,3.794,16.041,3.794C492.8,211.846,500,203.559,500,194c0-8.527-4.954-13.72-15.267-17.643-7.919-3.02-11.363-5.175-11.363-9.724,0-3.5,2.928-7.146,9.816-7.146a25.655,25.655,0,0,1,11.86,2.818l2.6-8.748a31.627,31.627,0,0,0-14.236-2.928c-12.873,0-21.013,7.33-21.013,17.054,0,8.508,6.262,13.776,16.078,17.256,7.5,2.726,10.516,5.378,10.516,9.853C488.991,199.618,485.105,202.859,478.2,202.859Z" transform="translate(-290.056 -62.489)" fill="#007dc5"/>
      <path id="Path_1064" data-name="Path 1064" d="M400.637,159.57a28.276,28.276,0,0,1,11.566,2.32l2.357-8.637c-2.21-1.2-7.238-2.634-14.383-2.634-18.14,0-31.787,11.787-31.787,31.308,0,18.067,11.474,29.927,30.314,29.927,7.182,0,12.836-1.418,15.4-2.707l-1.786-8.545a31.342,31.342,0,0,1-11.842,2.155c-13.057,0-20.663-8.287-20.663-21.382C379.808,167.121,388.519,159.57,400.637,159.57Z" transform="translate(-368.372 -62.497)" fill="#007dc5"/>
      <path id="Path_1065" data-name="Path 1065" d="M563.219,210.495V160.236h17.109V151.12H535.41v9.116h16.962v50.259Z" transform="translate(-227.799 -62.076)" fill="#007dc5"/>
      <path id="Path_1066" data-name="Path 1066" d="M685.178,151.12l-7.146,15.212c-2.026,4.309-3.665,7.993-5.138,11.787h-.184c-1.621-4.015-3.168-7.4-5.175-11.768l-7.072-15.23H648.05l18.785,34.66v24.715h10.847v-25.01l19.724-34.347H685.178Z" transform="translate(-132.996 -62.076)" fill="#007dc5"/>
      <path id="Path_1067" data-name="Path 1067" d="M423.449,150.6c-16.759,0-28.269,12.873-28.269,31.105,0,17.385,10.608,30.221,27.4,30.221h.092c16.262,0,28.325-11.381,28.325-31.271C450.964,163.676,440.761,150.6,423.449,150.6Zm-.424,52.634h-.092c-10.369,0-16.428-9.982-16.391-21.787-.018-11.842,5.691-22.173,16.52-22.173s16.391,10.59,16.391,21.787C439.435,193.474,433.5,203.234,423.026,203.234Z" transform="translate(-345.824 -62.514)" fill="#007dc5"/>
      <path id="Path_1068" data-name="Path 1068" d="M653.367,159.57a28.277,28.277,0,0,1,11.566,2.32l2.357-8.637c-2.21-1.2-7.238-2.634-14.383-2.634-18.14,0-31.787,11.787-31.787,31.308,0,18.067,11.473,29.927,30.314,29.927,7.182,0,12.836-1.4,15.4-2.707l-1.786-8.545a31.342,31.342,0,0,1-11.842,2.155c-13.057,0-20.663-8.287-20.663-21.382C632.538,167.121,641.249,159.57,653.367,159.57Z" transform="translate(-155.661 -62.497)" fill="#007dc5"/>
      <path id="Path_1069" data-name="Path 1069" d="M530.377,151.12H519.53v59.375H554.8v-9.1h-24.42Z" transform="translate(-241.164 -62.076)" fill="#007dc5"/>
      <path id="Path_1070" data-name="Path 1070" d="M534.023,185.035v-33.9H523.176v34.623c0,11.639-4.7,17-12.5,17-7.348,0-12.173-5.4-12.173-17V151.13H487.65v33.978c0,18.674,8.932,26.391,22.615,26.391C524.612,211.481,534.023,203.322,534.023,185.035Z" transform="translate(-267.996 -62.068)" fill="#007dc5"/>
      <path id="Path_1071" data-name="Path 1071" d="M477.629,151.12H467.592v20.719a246.217,246.217,0,0,0,.976,24.6l-.2.055a164.58,164.58,0,0,0-10.111-19.89L442.914,151.12H430.52v59.375h10.037V189.261c0-9.742-.147-17.588-.571-25.286l.276-.055A191.631,191.631,0,0,0,450.907,184.4l15.507,26.115h11.234V151.12Z" transform="translate(-316.08 -62.076)" fill="#007dc5"/>
      <rect id="Rectangle_20" data-name="Rectangle 20" width="10.847" height="59.375" transform="translate(197.112 178.106)" fill="#007dc5"/>
      <path id="Path_1072" data-name="Path 1072" d="M448.109,231.009v-.239a15.6,15.6,0,0,0,10.7-14.715c0-5.046-1.842-9.135-5.065-11.823-3.978-3.315-10.829-4.751-18.177-4.751a87.208,87.208,0,0,0-16.317,1.271v58.1h10.682V234.637h5.414c6.114.147,8.914,2.634,10.608,10.313,1.639,7.33,3.057,12.192,3.96,13.9h11.05c-1.179-2.3-2.781-9.061-4.641-16.428C454.849,236.7,452.381,232.63,448.109,231.009Zm-11.8-4.273h-6.372V208.117a30.54,30.54,0,0,1,6.685-.534c6.961.018,11.474,3.02,11.474,9.448C448.09,222.887,443.6,226.736,436.3,226.736Z" transform="translate(-325.565 -21.374)" fill="#007dc5"/>
      <path id="Path_1073" data-name="Path 1073" d="M475.581,226.634c-2.3,7.2-4.457,14.457-6.041,21.455h-.184c-1.547-7.182-3.573-14.125-5.82-21.621l-8.1-27H443.61l19.208,59.375H475.25l20.516-59.375H484.218Z" transform="translate(-305.063 -21.382)" fill="#007dc5"/>
      <path id="Path_1074" data-name="Path 1074" d="M527.007,232.5h22.376v-8.84H527.007V208.394h23.7V199.48H516.16v59.356h35.857v-8.914h-25.01Z" transform="translate(-244.001 -21.374)" fill="#007dc5"/>
      <path id="Path_1075" data-name="Path 1075" d="M518.607,207.92a28.277,28.277,0,0,1,11.566,2.32l2.357-8.637c-2.21-1.2-7.238-2.634-14.383-2.634-18.14,0-31.787,11.787-31.787,31.308,0,18.067,11.474,29.927,30.314,29.927,7.182,0,12.836-1.4,15.4-2.707l-1.786-8.545a31.413,31.413,0,0,1-11.842,2.155c-13.057,0-20.663-8.287-20.663-21.382C497.778,215.471,506.489,207.92,518.607,207.92Z" transform="translate(-269.082 -21.803)" fill="#007dc5"/>
      <path id="Path_1076" data-name="Path 1076" d="M391.7,224.708c-7.937-3.02-11.363-5.175-11.363-9.724,0-3.5,2.928-7.146,9.8-7.146a25.654,25.654,0,0,1,11.86,2.818l2.6-8.748a31.627,31.627,0,0,0-14.236-2.928c-12.873,0-21.013,7.33-21.013,17.054,0,8.508,6.262,13.776,16.078,17.256,7.5,2.726,10.516,5.378,10.516,9.853,0,4.862-3.867,8.1-10.792,8.1a29.954,29.954,0,0,1-14.346-3.794l-2.413,8.987c3.241,1.989,9.761,3.794,16.041,3.794,15.323,0,22.523-8.287,22.523-17.846C406.963,233.824,402.009,228.631,391.7,224.708Z" transform="translate(-368.38 -21.795)" fill="#007dc5"/>
      <path id="Path_1077" data-name="Path 1077" d="M405.467,232.5h22.376v-8.84H405.467V208.394h23.72V199.48H394.62v59.356H430.5v-8.914H405.467Z" transform="translate(-346.295 -21.374)" fill="#007dc5"/>
      <path id="Path_1078" data-name="Path 1078" d="M562.685,224.708c-7.919-3.02-11.363-5.175-11.363-9.724,0-3.5,2.928-7.146,9.8-7.146a25.654,25.654,0,0,1,11.86,2.818l2.6-8.748a31.627,31.627,0,0,0-14.236-2.928c-12.873,0-21.013,7.33-21.013,17.054,0,8.508,6.262,13.776,16.078,17.256,7.5,2.726,10.516,5.378,10.516,9.853,0,4.862-3.867,8.1-10.792,8.1a29.953,29.953,0,0,1-14.346-3.794l-2.413,8.987c3.241,1.989,9.761,3.794,16.041,3.794,15.323,0,22.523-8.287,22.523-17.846C577.953,233.824,573,228.631,562.685,224.708Z" transform="translate(-224.466 -21.795)" fill="#007dc5"/>
    </g>
    <g id="Group_199" data-name="Group 199" transform="translate(64.77 64.47)">
      <path id="Path_1079" data-name="Path 1079" d="M64.77,175.614c0-26.888,17.477-43.021,43.021-43.021V86.883c0-13.444-8.969-22.413-21.51-22.413S64.77,73.439,64.77,86.883Z" transform="translate(-64.77 -64.47)" fill="url(#linear-gradient)"/>
      <path id="Path_1080" data-name="Path 1080" d="M140.959,342.992a88.7,88.7,0,0,0,29.577-4.936c-45.268,7.624-62.745-23.3-62.745-58.251V136.415h52.432c12.1,0,20.166-7.164,20.166-17.477s-8.066-17.477-20.166-17.477H107.791c-25.544,0-43.021,16.133-43.021,43.021V267.706C64.77,317.007,93,342.992,140.959,342.992Z" transform="translate(-64.77 -33.337)" fill="url(#linear-gradient-2)"/>
      <path id="Path_1081" data-name="Path 1081" d="M150.875,264.337c17.919-6.722,31.824-19.264,40.774-37.643l-20.166-36.3c-8.969,26.888-24.641,41.235-46.152,41.235-22.413,0-37.2-13-37.2-42.579v17.035C88.13,241.04,105.607,271.961,150.875,264.337Z" transform="translate(-45.109 40.383)" fill="url(#linear-gradient-3)"/>
      <path id="Path_1082" data-name="Path 1082" d="M303.31,332.113c-102.175,15.23-134.44-39.43-134.44-109.781,0-51.087,31.363-86.042,76.631-86.042a99.764,99.764,0,0,1,43.021,9.411,35.5,35.5,0,0,0,15.23,3.591c10.755,0,17.919-7.164,17.919-17.919,0-6.722-4.033-13.444-13.444-17.919-17.035-8.508-38.988-13.444-62.745-13.444-70.811,0-119.652,50.185-119.652,123.225,0,71.7,47.054,121.438,122.783,121.438C269.258,344.655,287.177,340.622,303.31,332.113Z" transform="translate(-13.379 -34.558)" fill="url(#linear-gradient-4)"/>
      <path id="Path_1083" data-name="Path 1083" d="M125.85,223.225C125.85,150.185,174.691,100,245.5,100c23.757,0,45.71,4.936,62.745,13.444,9.411,4.475,13.444,11.2,13.444,17.919,0,10.755-7.164,17.919-17.919,17.919a35.5,35.5,0,0,1-15.23-3.591,99.952,99.952,0,0,0-43.021-9.411C183.2,136.3,125.85,175.729,125.85,223.225Z" transform="translate(-13.362 -34.566)" fill="url(#linear-gradient-5)"/>
      <path id="Path_1084" data-name="Path 1084" d="M280.747,107.79a20.336,20.336,0,0,0-6.28,14.788c0,14.788,13.886,36.741,46.152,59.154l36.741,25.544C384.248,226.1,395,244.017,395,270.9c0,19.264-7.624,35.857-20.166,47.5A21.279,21.279,0,0,0,382,301.826c0-15.691-15.691-40.332-49.3-63.629l-33.61-23.3c-28.232-19.724-39.43-38.085-39.43-63.187a56.349,56.349,0,0,1,14.346-38.085A75.766,75.766,0,0,1,280.747,107.79Z" transform="translate(99.259 -28.01)" fill="url(#linear-gradient-6)"/>
      <path id="Path_1085" data-name="Path 1085" d="M255.3,249.393c0,7.164,3.591,13,13,17.477,13,6.28,34.052,11.658,52.874,11.658,23.757,0,43.463-7.164,57.367-19.724a21.279,21.279,0,0,0,7.164-16.575c0-15.691-15.691-40.332-49.3-63.629,15.23,10.755,21.51,19.724,21.51,32.708,0,19.264-15.23,32.266-37.2,32.266-21.068,0-38.988-10.755-48.841-10.755S255.3,239.54,255.3,249.393Z" transform="translate(95.59 31.588)" fill="url(#linear-gradient-7)"/>
      <path id="Path_1086" data-name="Path 1086" d="M313.87,188.28c-14.346-10.313-20.608-19.724-20.608-30.921,0-14.346,11.658-23.3,28.232-23.3,21.069,0,30.921,9.853,43.463,9.853,9.853,0,16.575-6.722,16.575-16.575,0-7.164-3.591-13-13-17.477-14.788-7.164-30.921-9.853-48.4-9.853-18.38,0-34.513,5.378-46.152,14.346a20.336,20.336,0,0,0-6.28,14.788C267.7,143.915,281.6,165.867,313.87,188.28Z" transform="translate(106.026 -34.558)" fill="url(#linear-gradient-8)"/>
      <path id="Path_1087" data-name="Path 1087" d="M149.21,213.125c0,70.351,32.266,125.03,134.44,109.781,32.708-17.035,56.023-51.529,72.137-104.4l9.411-30.921c-8.969-11.658-12.542-24.641-12.542-38.546A56.349,56.349,0,0,1,367,110.95c-13.444,14.346-24.641,35.4-33.61,64.973L323.08,209.976c-18.38,60.056-47.5,88.731-92.764,88.731C180.573,298.706,149.21,264.212,149.21,213.125Z" transform="translate(6.299 -25.35)" fill="url(#linear-gradient-9)"/>
    </g>
  </g>
</svg>
